<?xml version="1.0" encoding="utf-8"?>
<!-- Generator: Adobe Illustrator 16.0.0, SVG Export Plug-In . SVG Version: 6.00 Build 0)  -->
<!DOCTYPE svg PUBLIC "-//W3C//DTD SVG 1.1//EN" "http://www.w3.org/Graphics/SVG/1.1/DTD/svg11.dtd">
<svg version="1.1" id="Слой_1" xmlns="http://www.w3.org/2000/svg" xmlns:xlink="http://www.w3.org/1999/xlink" x="0px" y="0px"
	 width="81px" height="81px" viewBox="0 0 81 81" enable-background="new 0 0 81 81" xml:space="preserve">
<polyline fill="none" stroke="#000000" stroke-width="0.8504" stroke-miterlimit="10" points="20.26,18.703 40.551,5.721 
	60.74,18.703 "/>
<g>
	<path fill="#E6E7E8" stroke="#000000" stroke-width="2.2677" stroke-linejoin="round" stroke-miterlimit="10" d="M20.259,18.703
		c0,0,0,44.956,0,49.979s2.945,6.021,6.319,6.021c2.49,0,5.213,0,7.156,0c4.941,0,6.766,5.066,6.766,5.066s1.824-5.066,6.766-5.066
		c1.943,0,4.666,0,7.156,0c3.374,0,6.319-0.998,6.319-6.021s0-49.979,0-49.979H20.259z"/>
	<polyline fill="none" stroke="#000000" stroke-width="0.8504" stroke-miterlimit="10" points="20.259,18.703 40.549,5.721 
		60.738,18.703 	"/>
</g>
</svg>
