<?xml version="1.0" encoding="utf-8"?>
<!-- Generator: Adobe Illustrator 15.1.0, SVG Export Plug-In . SVG Version: 6.00 Build 0)  -->
<!DOCTYPE svg PUBLIC "-//W3C//DTD SVG 1.1//EN" "http://www.w3.org/Graphics/SVG/1.1/DTD/svg11.dtd">
<svg version="1.1" id="Layer_1" xmlns="http://www.w3.org/2000/svg" xmlns:xlink="http://www.w3.org/1999/xlink" x="0px" y="0px"
	 width="209px" height="134px" viewBox="0 0 209 134" enable-background="new 0 0 209 134" xml:space="preserve">
<radialGradient id="SVGID_1_" cx="90.5435" cy="-71.8706" r="119.857" gradientTransform="matrix(1.0415 0 0 -0.5854 7.8613 14.5927)" gradientUnits="userSpaceOnUse">
	<stop  offset="0.2303" style="stop-color:#00AEEF"/>
	<stop  offset="1" style="stop-color:#FFFFFF;stop-opacity:0"/>
</radialGradient>
<rect fill="url(#SVGID_1_)" width="209" height="134"/>
<g>
	<path fill="#68686B" d="M11.186,23.596c-0.216-0.065-0.471-0.205-0.765-0.424c-0.295-0.215-0.558-0.479-0.788-0.791
		c-0.232-0.308-0.412-0.644-0.542-1.002c-0.134-0.35-0.139-0.677-0.026-0.963c0.713-1.752,1.776-3.303,3.183-4.647
		c1.407-1.339,3.013-2.434,4.824-3.289c1.123-0.52,2.301-0.894,3.521-1.114c1.222-0.218,2.39-0.211,3.506,0.011
		c1.11,0.229,2.126,0.73,3.047,1.512c0.916,0.784,1.645,1.906,2.188,3.37c0.637,1.746,0.896,3.448,0.779,5.111
		c-0.12,1.664-0.526,3.216-1.222,4.652c-0.701,1.444-1.652,2.75-2.865,3.925c-1.214,1.177-2.609,2.148-4.184,2.925
		c-1.075,0.531-2.099,0.921-3.076,1.18c-0.98,0.257-1.788,0.33-2.427,0.21l-1.03-16.089l4.583-2.021l1.016,14.697
		c1.035-0.615,1.901-1.396,2.601-2.347c0.701-0.951,1.222-1.993,1.56-3.127c0.337-1.133,0.502-2.311,0.493-3.532
		c-0.004-1.221-0.204-2.426-0.595-3.613c-0.323-0.973-0.733-1.794-1.223-2.455c-0.494-0.664-1.047-1.158-1.654-1.488
		c-0.613-0.327-1.266-0.493-1.96-0.491c-0.695,0.001-1.402,0.17-2.131,0.521c-1.049,0.517-1.939,1.097-2.668,1.737
		c-0.731,0.644-1.352,1.351-1.876,2.128c-0.527,0.778-0.965,1.618-1.322,2.519C11.768,21.608,11.454,22.571,11.186,23.596z"/>
	<path fill="#68686B" d="M44.848,18.493c-0.233,0.769-0.522,1.524-0.879,2.271c-0.356,0.745-0.783,1.436-1.271,2.063
		c-0.488,0.628-1.06,1.196-1.704,1.702c-0.642,0.506-1.363,0.911-2.158,1.211c-0.663,0.254-1.309,0.403-1.938,0.461
		c-0.628,0.055-1.214-0.01-1.754-0.199c-0.543-0.185-1.022-0.498-1.449-0.935c-0.425-0.437-0.777-1.021-1.056-1.75
		c-0.421-1.118-0.645-2.273-0.664-3.462c-0.023-1.189,0.174-2.326,0.583-3.408c0.412-1.082,1.056-2.061,1.934-2.943
		c0.879-0.878,2.002-1.579,3.371-2.096c0.752-0.285,1.489-0.37,2.213-0.252c0.72,0.118,1.194,0.473,1.418,1.065
		c0.211,0.625,0.172,1.282-0.109,1.975c-0.285,0.693-0.697,1.361-1.237,1.996c-0.542,0.637-1.153,1.211-1.827,1.725
		c-0.675,0.519-1.314,0.918-1.916,1.198c-0.044,0.56-0.002,1.176,0.133,1.843c0.135,0.668,0.292,1.24,0.474,1.718
		c0.078,0.203,0.181,0.409,0.31,0.606c0.125,0.201,0.289,0.368,0.484,0.501c0.191,0.136,0.424,0.216,0.695,0.243
		c0.274,0.025,0.603-0.033,0.99-0.18c0.498-0.19,0.967-0.532,1.401-1.04c0.435-0.502,0.834-1.073,1.193-1.703
		c0.361-0.631,0.682-1.284,0.974-1.966c0.288-0.686,0.539-1.3,0.747-1.847c0.319,0.01,0.587,0.153,0.811,0.434
		C44.838,18.001,44.914,18.256,44.848,18.493z M36.361,17.762c0.313-0.276,0.639-0.615,0.983-1.018
		c0.343-0.406,0.643-0.829,0.902-1.281c0.258-0.449,0.452-0.887,0.577-1.314c0.125-0.425,0.132-0.785,0.02-1.083
		c-0.111-0.297-0.305-0.392-0.583-0.288c-0.318,0.122-0.583,0.375-0.801,0.773c-0.215,0.394-0.397,0.848-0.54,1.356
		c-0.145,0.512-0.264,1.031-0.352,1.542C36.476,16.967,36.407,17.405,36.361,17.762z"/>
	<path fill="#68686B" d="M57.05,16.327c-0.011,0.363,0.056,0.599,0.194,0.704c0.137,0.108,0.299,0.134,0.483,0.07
		c1.038-0.342,2.198-2.008,3.468-4.998c0.292,0.033,0.525,0.153,0.699,0.365c0.172,0.212,0.2,0.492,0.084,0.839
		c-0.544,1.54-1.228,2.852-2.049,3.93c-0.824,1.085-1.962,1.866-3.422,2.347c-0.58,0.191-1.12,0.262-1.624,0.211
		c-0.506-0.051-0.947-0.229-1.329-0.521c-0.381-0.298-0.679-0.713-0.894-1.246c-0.213-0.535-0.32-1.186-0.319-1.954l-0.055-2.025
		l-3.333,1.104l-0.071,6.531l-4.477,1.485l0.122-13.829l4.513-1.497l-0.081,5.577l3.298-1.098l-0.094-5.514l4.617-1.532
		L57.05,16.327z"/>
	<path fill="#68686B" d="M69.35,15.037c-0.231,0.167-0.578,0.373-1.041,0.618c-0.463,0.242-0.976,0.489-1.538,0.737
		c-0.564,0.25-1.162,0.463-1.796,0.642c-0.633,0.177-1.245,0.29-1.843,0.33c-0.82,0.055-1.459-0.055-1.918-0.33
		c-0.455-0.277-0.788-0.655-0.99-1.144c-0.201-0.487-0.31-1.059-0.332-1.71c-0.019-0.65,0.002-1.351,0.069-2.108
		c0.033-0.696,0.08-1.435,0.147-2.226c0.066-0.79,0.138-1.553,0.208-2.283c0.073-0.729,0.128-1.403,0.169-2.024
		c0.038-0.616,0.07-1.106,0.095-1.47l4.574-1.292l-0.495,5.497c0.599-0.75,1.324-1.316,2.179-1.7
		c0.854-0.379,1.681-0.543,2.481-0.495c0.8,0.053,1.51,0.36,2.123,0.921c0.614,0.56,0.969,1.409,1.064,2.548
		c0.081,1.093-0.17,2.105-0.753,3.042C71.169,13.527,70.37,14.338,69.35,15.037z M68.439,9.405c-0.169-0.507-0.418-0.834-0.75-0.969
		c-0.329-0.134-0.686-0.146-1.076-0.037c-0.386,0.108-0.766,0.311-1.139,0.606c-0.374,0.295-0.685,0.631-0.931,1.005l-0.009,1.711
		c-0.116,1.201-0.055,2.14,0.188,2.818c0.245,0.676,0.722,0.855,1.439,0.524c0.447-0.127,0.836-0.413,1.179-0.865
		c0.344-0.453,0.611-0.964,0.802-1.536c0.192-0.574,0.318-1.159,0.376-1.761C68.582,10.301,68.553,9.802,68.439,9.405z"/>
	<path fill="#68686B" d="M20.967,40.536c-0.766-0.75-1.454-1.171-2.06-1.271c-0.607-0.096-1.224,0-1.851,0.289
		c-0.556,0.263-1.058,0.711-1.501,1.351c-0.44,0.637-0.816,1.382-1.127,2.237c-0.31,0.853-0.542,1.79-0.698,2.814
		c-0.156,1.022-0.246,2.046-0.274,3.073c-0.033,1.025,0.025,2.018,0.163,2.978c0.14,0.963,0.353,1.819,0.636,2.571
		c0.28,0.731,0.699,1.32,1.262,1.765c0.56,0.443,1.263,0.503,2.104,0.186c0.584-0.196,1.148-0.558,1.696-1.082
		c0.548-0.525,1.064-1.167,1.55-1.923c0.487-0.753,0.952-1.596,1.397-2.527c0.445-0.931,0.853-1.899,1.233-2.902
		c0.166,0.037,0.328,0.13,0.484,0.271c0.156,0.144,0.291,0.303,0.41,0.473c0.115,0.17,0.202,0.349,0.258,0.53
		c0.055,0.18,0.062,0.344,0.015,0.488c-0.327,0.937-0.732,1.874-1.21,2.816c-0.479,0.944-1.038,1.835-1.682,2.675
		c-0.642,0.84-1.391,1.608-2.243,2.3c-0.854,0.69-1.821,1.245-2.906,1.658c-0.685,0.261-1.384,0.425-2.094,0.492
		c-0.71,0.065-1.385-0.011-2.03-0.235c-0.642-0.225-1.238-0.605-1.786-1.145c-0.549-0.538-1.006-1.296-1.378-2.271
		c-0.684-1.793-1.008-3.68-0.974-5.654c0.033-1.977,0.391-3.852,1.072-5.621c0.685-1.767,1.662-3.329,2.931-4.69
		c1.27-1.359,2.798-2.325,4.582-2.902c1.011-0.336,1.89-0.379,2.63-0.127c0.747,0.25,1.362,0.623,1.852,1.12
		c0.276,0.327,0.341,0.729,0.193,1.203C21.477,39.942,21.259,40.298,20.967,40.536z"/>
	<path fill="#68686B" d="M30.593,42.895c-0.158,0.953-0.27,1.813-0.338,2.587c-0.068,0.771-0.088,1.489-0.065,2.157
		c0.02,0.667,0.087,1.299,0.2,1.9c0.114,0.599,0.272,1.214,0.481,1.845c0.129,0.38,0.27,0.614,0.425,0.701
		c0.153,0.086,0.349,0.076,0.588-0.028c0.374-0.148,0.744-0.453,1.101-0.909c0.36-0.458,0.686-0.995,0.979-1.619
		c0.294-0.623,0.539-1.269,0.744-1.937c0.203-0.667,0.332-1.285,0.393-1.853c-0.614-0.119-1.095-0.385-1.444-0.794
		c-0.349-0.408-0.578-0.861-0.68-1.364c-0.106-0.503-0.079-1.024,0.078-1.564c0.158-0.54,0.45-0.993,0.876-1.359
		c0.407-0.359,0.837-0.547,1.292-0.562c0.458-0.016,0.818,0.258,1.08,0.822c0.203,0.455,0.335,0.924,0.393,1.406
		c0.061,0.479,0.089,1.057,0.091,1.73c1.237-0.339,2.387-1.007,3.451-2.013c0.105,0.166,0.186,0.37,0.24,0.613
		c0.057,0.242-0.02,0.462-0.231,0.657c-0.496,0.464-1.004,0.844-1.527,1.146c-0.525,0.298-1.178,0.591-1.958,0.875
		c-0.089,0.854-0.275,1.737-0.561,2.64c-0.287,0.906-0.668,1.757-1.154,2.558c-0.482,0.795-1.075,1.513-1.776,2.145
		c-0.699,0.635-1.498,1.101-2.398,1.401c-1.035,0.343-1.957,0.292-2.77-0.164c-0.815-0.455-1.399-1.22-1.759-2.3
		c-0.293-0.876-0.461-1.885-0.506-3.033c-0.044-1.145,0.034-2.338,0.231-3.58c0.2-1.239,0.507-2.488,0.928-3.737
		c0.42-1.252,0.939-2.412,1.558-3.479c0.619-1.067,1.331-1.998,2.14-2.792c0.809-0.796,1.711-1.384,2.709-1.766
		c0.807-0.269,1.43-0.341,1.859-0.209c0.43,0.132,0.71,0.613,0.837,1.445c0.112,0.787-0.042,1.621-0.462,2.495
		c-0.42,0.879-0.945,1.716-1.578,2.512c-0.635,0.797-1.277,1.507-1.934,2.126C31.47,42.216,30.959,42.65,30.593,42.895z
		 M30.854,41.199c0.329-0.283,0.697-0.676,1.105-1.173c0.408-0.5,0.786-1.032,1.136-1.597c0.348-0.564,0.63-1.142,0.848-1.725
		c0.219-0.583,0.288-1.102,0.213-1.55c-0.021-0.218-0.086-0.388-0.191-0.515s-0.204-0.174-0.292-0.146
		c-0.292,0.097-0.589,0.423-0.891,0.971c-0.305,0.553-0.583,1.181-0.834,1.888c-0.252,0.709-0.476,1.42-0.673,2.135
		C31.072,40.2,30.933,40.773,30.854,41.199z"/>
	<path fill="#68686B" d="M44.848,49.596c-0.643,0.167-1.231,0.164-1.765-0.008c-0.536-0.176-0.867-0.475-0.997-0.909
		c-0.137-0.455-0.021-0.889,0.349-1.311c0.368-0.418,0.873-0.715,1.514-0.882c0.636-0.19,1.225-0.196,1.777-0.015
		c0.547,0.184,0.877,0.491,0.983,0.929c0.128,0.433,0.011,0.858-0.361,1.279C45.984,49.098,45.482,49.406,44.848,49.596z"/>
	<path fill="#68686B" d="M47.444,36.341c-0.564-0.111-1.077-0.342-1.549-0.696c-0.471-0.353-0.697-0.943-0.67-1.779
		c0.344-0.808,0.899-1.644,1.659-2.504c0.758-0.858,1.671-1.678,2.727-2.461c1.061-0.783,2.227-1.487,3.503-2.112
		c1.277-0.628,2.63-1.109,4.063-1.442c2.26-0.53,4.082-0.546,5.46-0.051c1.383,0.493,2.198,1.329,2.45,2.513
		c0.234,1.112,0.098,2.191-0.411,3.237c-0.512,1.042-1.507,2.09-2.989,3.141c1.366-0.194,2.416,0.012,3.156,0.616
		c0.738,0.608,1.198,1.409,1.386,2.414c0.221,1.164,0.102,2.256-0.366,3.278c-0.467,1.022-1.161,1.938-2.078,2.748
		c-0.917,0.813-1.989,1.511-3.214,2.101c-1.227,0.591-2.503,1.014-3.827,1.278c-1.372,0.27-2.665,0.441-3.879,0.504
		c-1.212,0.065-2.198-0.009-2.952-0.224l1.857-15.178l4.638-1.083l-0.63,5.111c0.732-0.293,1.434-0.683,2.098-1.167
		c0.666-0.486,1.239-1.006,1.713-1.569c0.479-0.56,0.833-1.148,1.066-1.764c0.23-0.612,0.304-1.213,0.218-1.802
		c-0.159-0.885-0.592-1.517-1.299-1.886c-0.708-0.371-1.647-0.419-2.825-0.143c-1.156,0.27-2.207,0.686-3.159,1.248
		c-0.951,0.561-1.808,1.239-2.574,2.024c-0.765,0.787-1.444,1.662-2.033,2.625C48.393,34.283,47.878,35.292,47.444,36.341z
		 M54.709,44.644c1.046-0.096,2.054-0.326,3.015-0.688c0.962-0.356,1.789-0.83,2.48-1.416c0.689-0.585,1.186-1.264,1.496-2.031
		c0.308-0.765,0.345-1.594,0.113-2.489c-0.153-0.547-0.468-0.95-0.937-1.204c-0.475-0.254-1.114-0.289-1.923-0.101
		c-1.43,0.336-2.579,0.777-3.452,1.318L54.709,44.644z"/>
	<path fill="#68686B" d="M80.3,39.006c-0.037,0.201,0,0.373,0.112,0.522c0.111,0.15,0.294,0.199,0.552,0.151
		c0.281-0.051,0.563-0.253,0.846-0.604c0.284-0.356,0.576-0.775,0.874-1.264c0.297-0.488,0.588-0.993,0.882-1.514
		c0.289-0.524,0.564-0.989,0.827-1.396c0.281,0.091,0.513,0.267,0.691,0.521c0.179,0.256,0.219,0.502,0.116,0.74
		c-0.241,0.525-0.536,1.096-0.88,1.711c-0.346,0.619-0.757,1.204-1.233,1.762c-0.475,0.554-1.037,1.048-1.681,1.479
		c-0.644,0.43-1.398,0.723-2.258,0.879c-0.327,0.06-0.67,0.074-1.021,0.044c-0.358-0.033-0.688-0.128-0.995-0.289
		c-0.307-0.162-0.572-0.408-0.803-0.74c-0.23-0.329-0.369-0.77-0.422-1.312c-0.446,0.851-0.97,1.615-1.568,2.292
		c-0.603,0.673-1.358,1.092-2.264,1.262c-0.51,0.09-1,0.083-1.464-0.021c-0.466-0.108-0.885-0.296-1.26-0.567
		c-0.373-0.267-0.687-0.601-0.941-1c-0.255-0.398-0.425-0.832-0.51-1.3c-0.216-1.186-0.176-2.399,0.115-3.631
		c0.294-1.233,0.802-2.369,1.528-3.403c0.725-1.036,1.648-1.932,2.762-2.689c1.116-0.757,2.382-1.267,3.803-1.526
		c1.19-0.215,2.265-0.29,3.229-0.225c0.963,0.066,1.798,0.199,2.513,0.408L80.3,39.006z M77.353,30.582
		c-0.743,0.16-1.456,0.526-2.146,1.097c-0.692,0.571-1.293,1.272-1.804,2.1c-0.515,0.829-0.894,1.748-1.142,2.754
		c-0.25,1.01-0.309,2.021-0.172,3.031c0.036,0.332,0.154,0.601,0.346,0.805c0.195,0.206,0.456,0.275,0.781,0.217
		c0.467-0.084,0.978-0.479,1.534-1.183c0.558-0.705,1.029-1.524,1.413-2.461L77.353,30.582z"/>
	<path fill="#68686B" d="M86.829,34.366c-0.135,0.233-0.247,0.577-0.34,1.033c-0.095,0.455-0.132,0.907-0.118,1.362
		c0.01,0.453,0.085,0.842,0.214,1.173c0.128,0.331,0.361,0.482,0.692,0.461c0.251-0.082,0.546-0.373,0.885-0.875
		c0.338-0.502,0.688-1.129,1.049-1.884c0.362-0.758,0.732-1.587,1.11-2.483c0.379-0.901,0.737-1.78,1.071-2.643
		c0.335-0.859,0.639-1.654,0.909-2.386c0.271-0.731,0.485-1.298,0.645-1.702l5.533-0.724L96.005,36.37
		c-0.094,0.374-0.055,0.635,0.108,0.792c0.167,0.154,0.404,0.13,0.709-0.078c0.239-0.175,0.514-0.411,0.818-0.705
		c0.306-0.292,0.614-0.618,0.925-0.968c0.311-0.354,0.608-0.706,0.895-1.057c0.288-0.348,0.532-0.659,0.731-0.923
		c0.28,0.103,0.47,0.318,0.573,0.637c0.104,0.323,0.073,0.6-0.083,0.84c-0.357,0.527-0.766,1.049-1.219,1.566
		c-0.453,0.514-0.938,0.99-1.456,1.421c-0.517,0.431-1.058,0.799-1.625,1.103c-0.566,0.306-1.145,0.5-1.732,0.577
		c-1.221,0.168-2.034-0.049-2.441-0.652c-0.403-0.601-0.525-1.439-0.363-2.514l1.651-7.295c-0.59,1.442-1.149,2.842-1.684,4.195
		c-0.53,1.354-1.064,2.557-1.603,3.612c-0.537,1.055-1.089,1.907-1.655,2.56c-0.571,0.652-1.196,1.002-1.883,1.048
		c-0.765,0.011-1.394-0.179-1.89-0.564s-0.867-0.868-1.113-1.445c-0.245-0.573-0.385-1.178-0.413-1.808
		c-0.027-0.629,0.036-1.182,0.186-1.658L86.829,34.366z"/>
	<path fill="#68686B" d="M112.458,33.043c-0.411,0.658-0.878,1.293-1.402,1.907c-0.521,0.612-1.095,1.147-1.716,1.614
		c-0.62,0.468-1.294,0.855-2.027,1.165c-0.729,0.31-1.509,0.505-2.333,0.588c-0.686,0.068-1.329,0.047-1.934-0.059
		c-0.608-0.106-1.14-0.318-1.601-0.627c-0.458-0.314-0.832-0.73-1.124-1.248c-0.289-0.521-0.471-1.155-0.544-1.909
		c-0.114-1.157-0.03-2.296,0.253-3.421c0.28-1.12,0.754-2.138,1.41-3.048c0.662-0.912,1.518-1.667,2.562-2.27
		c1.047-0.603,2.28-0.973,3.693-1.115c0.78-0.078,1.494,0.032,2.14,0.324c0.646,0.293,1.004,0.748,1.061,1.36
		c0.04,0.638-0.162,1.245-0.604,1.827c-0.445,0.577-1.002,1.097-1.667,1.556c-0.668,0.46-1.387,0.845-2.151,1.157
		c-0.769,0.314-1.466,0.528-2.098,0.636c-0.184,0.519-0.299,1.108-0.345,1.765c-0.042,0.659-0.038,1.235,0.011,1.73
		c0.021,0.212,0.066,0.426,0.135,0.647c0.067,0.22,0.175,0.416,0.325,0.59c0.149,0.176,0.347,0.311,0.597,0.41
		c0.246,0.095,0.568,0.121,0.972,0.083c0.517-0.051,1.048-0.256,1.582-0.62c0.536-0.362,1.049-0.794,1.552-1.296
		c0.498-0.499,0.968-1.036,1.413-1.604c0.44-0.566,0.831-1.083,1.169-1.544c0.294,0.091,0.508,0.295,0.647,0.615
		C112.573,32.579,112.584,32.838,112.458,33.043z M104.681,30.204c0.363-0.177,0.756-0.413,1.179-0.707
		c0.423-0.29,0.814-0.614,1.173-0.973c0.355-0.356,0.65-0.719,0.876-1.086c0.225-0.366,0.325-0.704,0.29-1.01
		c-0.029-0.306-0.185-0.444-0.469-0.417c-0.331,0.033-0.646,0.205-0.948,0.523c-0.306,0.315-0.587,0.694-0.854,1.135
		c-0.265,0.447-0.505,0.896-0.72,1.357C104.988,29.489,104.815,29.881,104.681,30.204z"/>
	<path fill="#68686B" d="M124.454,34.066c-0.101,0.338-0.097,0.575,0.006,0.709c0.104,0.136,0.251,0.198,0.439,0.188
		c1.064-0.062,2.567-1.337,4.51-3.825c0.268,0.103,0.451,0.276,0.563,0.519c0.109,0.243,0.067,0.511-0.129,0.81
		c-0.898,1.311-1.868,2.371-2.914,3.18c-1.044,0.809-2.311,1.254-3.802,1.344c-0.591,0.035-1.117-0.036-1.578-0.21
		c-0.459-0.173-0.832-0.45-1.115-0.825c-0.285-0.377-0.459-0.843-0.527-1.395c-0.071-0.552-0.004-1.192,0.188-1.914l0.462-1.915
		l-3.409,0.202l-1.704,6.116l-4.577,0.268l3.584-12.953l4.611-0.272l-1.476,5.215l3.375-0.197l1.295-5.205l4.723-0.276
		L124.454,34.066z"/>
	<path fill="#68686B" d="M142.105,26.429c-0.089,0.31-0.18,0.607-0.283,0.889c-0.111,0.285-0.214,0.518-0.306,0.71
		c-0.097,0.189-0.157,0.285-0.18,0.284c0.285-0.377,0.642-0.709,1.068-0.992c0.423-0.281,0.882-0.515,1.368-0.689
		c0.485-0.177,0.973-0.311,1.461-0.406c0.483-0.092,0.928-0.138,1.329-0.139c0.948,0.002,1.665,0.275,2.152,0.822
		c0.481,0.545,0.581,1.34,0.294,2.381l-1.574,4.618c-0.122,0.308-0.134,0.537-0.037,0.691c0.094,0.154,0.213,0.232,0.354,0.233
		c0.356-0.001,0.742-0.118,1.159-0.353c0.411-0.237,0.834-0.543,1.261-0.922c0.431-0.375,0.857-0.795,1.285-1.256
		c0.429-0.463,0.854-0.916,1.288-1.367c0.115,0.048,0.229,0.12,0.354,0.216c0.117,0.097,0.215,0.202,0.281,0.32
		c0.068,0.118,0.102,0.25,0.085,0.391c-0.008,0.14-0.079,0.282-0.192,0.425c-0.528,0.614-1.06,1.18-1.606,1.702
		c-0.546,0.519-1.131,0.983-1.76,1.385c-0.63,0.398-1.304,0.713-2.03,0.935c-0.72,0.223-1.525,0.332-2.405,0.331
		c-1.135,0.001-1.954-0.317-2.444-0.944c-0.495-0.632-0.493-1.62,0.008-2.97l1.395-3.763c0.073-0.19,0.097-0.361,0.075-0.517
		c-0.024-0.151-0.132-0.23-0.316-0.229c-0.17-0.002-0.382,0.021-0.646,0.069c-0.259,0.047-0.538,0.154-0.835,0.318
		c-0.292,0.166-0.587,0.403-0.872,0.709c-0.283,0.307-0.522,0.723-0.715,1.239l-2.181,5.682l-4.336-0.009l3.438-9.943
		c0.071-0.188,0.083-0.392,0.036-0.605c-0.046-0.21-0.166-0.32-0.354-0.322c-0.192,0-0.423,0.025-0.696,0.071
		c-0.273,0.045-0.555,0.153-0.85,0.316c-0.3,0.166-0.602,0.401-0.908,0.709c-0.308,0.305-0.581,0.721-0.82,1.242l-3.152,8.519
		l-4.366-0.009l4.366-12.712l4.298,0.01l-0.538,1.705c0.188-0.238,0.494-0.469,0.906-0.694c0.415-0.22,0.87-0.421,1.372-0.598
		c0.498-0.178,0.999-0.316,1.512-0.423c0.51-0.104,0.965-0.159,1.367-0.157c0.759,0,1.321,0.206,1.689,0.607
		c0.364,0.404,0.488,0.975,0.368,1.709C142.243,25.86,142.19,26.124,142.105,26.429z M142.341,17.704
		c-2.431,0.483-4.642,1.488-6.637,3.022l1.131,1.675c1.878-1.083,3.739-1.708,5.589-1.87c1.849-0.161,3.804-0.014,5.861,0.442
		l1.608-3.194C147.285,17.25,144.771,17.226,142.341,17.704z"/>
	<path fill="#68686B" d="M153.599,36.967c-0.804-0.056-1.41-0.271-1.825-0.645c-0.411-0.372-0.593-0.926-0.54-1.659
		c0.024-0.354,0.142-0.857,0.354-1.507c0.211-0.65,0.476-1.361,0.791-2.133c0.32-0.773,0.66-1.569,1.024-2.389
		c0.364-0.814,0.702-1.57,1.014-2.261c0.312-0.693,0.576-1.271,0.797-1.743c0.227-0.474,0.354-0.753,0.385-0.846l4.355,0.342
		l-4.495,10.157c-0.109,0.257-0.13,0.471-0.045,0.657c0.083,0.184,0.221,0.281,0.405,0.296c0.321,0.094,0.742,0.017,1.246-0.232
		c0.506-0.245,1.003-0.569,1.495-0.962c0.487-0.393,0.937-0.818,1.337-1.276c0.395-0.459,0.668-0.851,0.812-1.173l3.252-7.216
		l4.249,0.334l-4.268,9.995c-0.144,0.346-0.151,0.615-0.021,0.803c0.124,0.183,0.368,0.208,0.706,0.064
		c0.247-0.123,0.551-0.306,0.913-0.539c0.36-0.235,0.725-0.495,1.084-0.78c0.362-0.283,0.717-0.574,1.059-0.871
		c0.34-0.298,0.642-0.552,0.895-0.772c0.245,0.158,0.393,0.403,0.44,0.743c0.049,0.337-0.036,0.602-0.232,0.804
		c-0.463,0.442-0.929,0.875-1.412,1.29c-0.483,0.417-0.985,0.787-1.521,1.103c-0.534,0.321-1.087,0.572-1.657,0.758
		c-0.572,0.186-1.147,0.258-1.742,0.217c-0.619-0.046-1.095-0.167-1.438-0.371c-0.344-0.202-0.587-0.462-0.73-0.781
		c-0.147-0.318-0.194-0.691-0.155-1.114c0.046-0.424,0.157-0.887,0.331-1.401c-1.205,1.198-2.341,2.039-3.421,2.518
		C155.983,36.857,154.826,37.053,153.599,36.967z"/>
	<path fill="#68686B" d="M180.06,36.706c-0.162,0.312-0.202,0.548-0.126,0.703c0.075,0.153,0.209,0.241,0.398,0.267
		c1.059,0.139,2.772-0.831,5.149-2.908c0.241,0.15,0.397,0.359,0.458,0.618c0.063,0.258-0.033,0.516-0.277,0.772
		c-1.129,1.117-2.28,1.974-3.454,2.572c-1.18,0.598-2.511,0.799-3.994,0.605c-0.585-0.077-1.093-0.246-1.507-0.505
		c-0.425-0.26-0.734-0.599-0.943-1.018c-0.212-0.425-0.295-0.913-0.257-1.468c0.034-0.557,0.221-1.174,0.553-1.845l0.801-1.795
		l-3.379-0.443l-2.831,5.683l-4.546-0.595l5.963-12.049l4.574,0.602l-2.43,4.841l3.351,0.441l2.252-4.865l4.69,0.619L180.06,36.706z
		"/>
	<path fill="#68686B" d="M194.935,39.562c-0.109,0.172-0.138,0.35-0.087,0.528c0.053,0.179,0.198,0.291,0.457,0.346
		c0.277,0.055,0.615-0.026,1.01-0.252c0.393-0.222,0.821-0.505,1.275-0.849c0.453-0.343,0.916-0.706,1.377-1.083
		c0.464-0.377,0.889-0.71,1.289-0.989c0.225,0.188,0.379,0.439,0.449,0.742c0.071,0.303,0.017,0.548-0.168,0.728
		c-0.419,0.398-0.902,0.822-1.448,1.268c-0.551,0.443-1.144,0.842-1.799,1.179c-0.644,0.343-1.346,0.596-2.106,0.757
		c-0.755,0.161-1.566,0.157-2.422-0.015c-0.328-0.067-0.651-0.181-0.965-0.338c-0.32-0.162-0.591-0.374-0.819-0.638
		c-0.225-0.263-0.387-0.592-0.472-0.981c-0.091-0.394-0.059-0.853,0.093-1.38c-0.727,0.627-1.493,1.146-2.301,1.548
		c-0.809,0.406-1.661,0.521-2.571,0.337c-0.512-0.106-0.959-0.29-1.359-0.564c-0.389-0.273-0.708-0.602-0.955-0.992
		c-0.249-0.387-0.415-0.814-0.502-1.279c-0.089-0.465-0.089-0.929,0.006-1.393c0.239-1.187,0.727-2.295,1.449-3.333
		c0.729-1.039,1.62-1.906,2.681-2.598c1.054-0.694,2.246-1.186,3.559-1.479c1.317-0.29,2.682-0.295,4.105-0.009
		c1.18,0.238,2.212,0.565,3.078,0.983c0.874,0.417,1.598,0.85,2.187,1.307L194.935,39.562z M195.312,30.65
		c-0.751-0.126-1.55-0.052-2.4,0.222c-0.852,0.274-1.671,0.706-2.452,1.284c-0.783,0.584-1.477,1.291-2.08,2.139
		c-0.603,0.847-1.029,1.766-1.278,2.751c-0.085,0.321-0.085,0.612,0.026,0.875c0.105,0.262,0.317,0.428,0.646,0.491
		c0.463,0.093,1.088-0.083,1.867-0.529c0.775-0.45,1.512-1.039,2.216-1.767L195.312,30.65z"/>
</g>
<radialGradient id="SVGID_2_" cx="91.1729" cy="-88.0771" r="119.8561" gradientTransform="matrix(1.0415 0 0 -0.2278 7.8613 88.9427)" gradientUnits="userSpaceOnUse">
	<stop  offset="0.2303" style="stop-color:#00AE00"/>
	<stop  offset="1" style="stop-color:#FFFFFF;stop-opacity:0"/>
</radialGradient>
<rect x="0.387" y="81.85" fill="url(#SVGID_2_)" width="209" height="52.15"/>
<g>
	<g>
		<g>
			<path fill="#F7941E" d="M141.443,117.712c-0.739,0.018-1.498,0.04-2.276,0.069c-21.637,0.825-30.184-1.127-30.542-6.247
				c-0.356-5.122,10.637-11.12,18.701-8.461l2.116,0.697l1.911-1.149c0.755-0.452,1.21-0.711,1.215-0.713
				c2.337-1.317,3.166-4.28,1.851-6.618c-1.238-2.203-3.934-3.07-6.202-2.063c-11.957-2.895-20.491,2.635-26.196,9.728
				c-4.127,5.13-4.917,11.021-2.113,15.769c5.25,8.409,21.076,8.924,24.588,8.924c7.513,0.045,12.955,0.109,18.751-0.882
				L141.443,117.712z"/>
			<g>
				<path d="M141.443,117.712c-5.024,0.236-10.056,0.483-15.098,0.4c-2.521-0.04-5.045-0.149-7.562-0.438
					c-2.502-0.322-5.047-0.741-7.394-1.901c-1.145-0.584-2.281-1.466-2.828-2.769c-0.267-0.634-0.39-1.341-0.343-2.03
					c0.049-0.697,0.273-1.361,0.581-1.958c0.624-1.195,1.549-2.161,2.55-2.986c1.005-0.82,2.11-1.504,3.262-2.082
					c2.314-1.132,4.836-1.865,7.429-2.027c1.296-0.081,2.607-0.016,3.895,0.232c1.312,0.258,2.483,0.727,3.68,1.098l-0.459,0.051
					l1.975-1.192c0.653-0.417,1.391-0.762,1.86-1.18c1.033-0.885,1.591-2.286,1.458-3.636c-0.061-0.68-0.282-1.319-0.66-1.914
					c-0.349-0.549-0.857-1.047-1.438-1.382c-1.167-0.689-2.659-0.777-3.893-0.218l-0.181,0.085l-0.201-0.049
					c-3.672-0.889-7.526-1.039-11.188-0.179c-3.663,0.827-7.062,2.661-9.946,5.092c-1.444,1.217-2.776,2.575-4,4.025
					c-1.24,1.456-2.27,2.994-3.009,4.723c-0.735,1.704-1.156,3.548-1.125,5.395c0.022,1.843,0.505,3.669,1.396,5.285
					c0.891,1.584,2.256,2.923,3.774,4c1.531,1.078,3.243,1.903,5.018,2.567c3.569,1.316,7.371,2.002,11.184,2.356
					c1.916,0.184,3.813,0.23,5.753,0.244l5.781,0.057c3.852,0.013,7.705-0.127,11.514-0.731l-0.101,0.147L141.443,117.712z
					 M141.443,117.712l1.928,9.031l0.026,0.123l-0.128,0.022c-3.808,0.712-7.687,0.957-11.548,1.049
					c-1.933,0.054-3.862,0.057-5.793,0.059c-1.919,0.019-3.882,0-5.812-0.154c-3.869-0.303-7.739-0.938-11.439-2.234
					c-1.843-0.659-3.641-1.492-5.284-2.611c-1.642-1.118-3.114-2.538-4.132-4.323c-0.983-1.758-1.525-3.77-1.559-5.788
					c-0.043-2.019,0.407-4.023,1.186-5.859c0.767-1.831,1.904-3.535,3.161-5.021c1.253-1.503,2.626-2.92,4.124-4.193
					c2.988-2.544,6.56-4.504,10.437-5.401c3.873-0.898,7.938-0.708,11.751,0.232l-0.382,0.035c1.579-0.711,3.493-0.587,4.971,0.298
					c0.742,0.442,1.371,1.049,1.842,1.795c0.439,0.706,0.739,1.558,0.811,2.415c0.161,1.716-0.553,3.479-1.866,4.596
					c-0.32,0.278-0.71,0.525-1.039,0.707l-0.984,0.578l-1.977,1.182l-0.216,0.129l-0.245-0.077
					c-1.204-0.379-2.376-0.852-3.543-1.078c-1.182-0.232-2.404-0.3-3.618-0.229c-2.434,0.142-4.852,0.777-7.067,1.83
					c-1.106,0.53-2.165,1.165-3.115,1.921c-0.949,0.754-1.811,1.643-2.368,2.675c-0.58,1.021-0.698,2.218-0.26,3.287
					c0.421,1.057,1.377,1.856,2.436,2.418c2.168,1.122,4.672,1.583,7.13,1.944c2.478,0.353,4.982,0.528,7.492,0.637
					C131.378,117.922,136.413,117.812,141.443,117.712z"/>
			</g>
		</g>
		<g>
			<path fill="#F7941E" d="M180.851,105.417c5.457-6.646,3.556-4.073,3.556-14.29c0-20.238-13.278-47.985-29.66-47.985
				s-29.66,27.747-29.66,47.985c0,10.217-1.475,7.644,3.984,14.29c0,0,6.384,3.264,25.666,3.264
				C174.021,108.682,180.851,105.417,180.851,105.417z"/>
			<g>
				<path d="M180.851,105.417c0.986-1.25,2.026-2.466,2.914-3.783c0.436-0.659,0.78-1.389,0.844-2.173
					c0.067-0.782-0.019-1.578-0.078-2.371c-0.141-1.587-0.246-3.184-0.284-4.781c-0.029-1.599-0.058-3.182-0.201-4.766
					c-0.56-6.328-2.086-12.553-4.338-18.475c-2.276-5.905-5.283-11.585-9.328-16.423c-2.022-2.404-4.315-4.603-6.96-6.253
					c-2.622-1.651-5.65-2.71-8.716-2.679c-3.086,0.007-6.082,1.095-8.689,2.767c-2.62,1.674-4.896,3.88-6.891,6.299
					c-3.972,4.878-6.939,10.551-9.177,16.456c-2.212,5.917-3.702,12.136-4.173,18.432c-0.124,1.576-0.134,3.133-0.143,4.745
					c-0.021,1.601-0.1,3.213-0.165,4.792c-0.023,0.784-0.055,1.57,0.082,2.257c0.132,0.684,0.489,1.304,0.938,1.935
					c0.911,1.249,1.971,2.467,2.968,3.712l-0.156-0.125c1.88,0.83,4.056,1.338,6.161,1.767c2.128,0.419,4.284,0.72,6.448,0.952
					c4.328,0.46,8.691,0.639,13.053,0.665c4.364,0.049,8.73-0.068,13.077-0.459c2.174-0.198,4.34-0.46,6.489-0.843
					C176.666,106.673,178.819,106.229,180.851,105.417z M180.851,105.417c-2.017,0.858-4.161,1.356-6.298,1.803
					c-2.145,0.433-4.314,0.749-6.488,1c-4.352,0.497-8.729,0.713-13.108,0.771c-4.38,0.035-8.765-0.088-13.137-0.492
					c-2.184-0.206-4.368-0.481-6.531-0.878c-2.176-0.42-4.302-0.857-6.439-1.771l-0.081-0.035l-0.073-0.09
					c-1.014-1.232-2.064-2.407-3.055-3.721c-0.48-0.651-0.966-1.436-1.138-2.331c-0.174-0.88-0.135-1.705-0.114-2.507
					c0.06-1.604,0.131-3.181,0.142-4.772c0.002-1.576,0.006-3.214,0.125-4.81c0.454-6.43,1.938-12.744,4.164-18.773
					c2.249-6.012,5.229-11.819,9.36-16.815c2.066-2.482,4.432-4.765,7.204-6.517c2.747-1.749,5.988-2.915,9.308-2.908
					c3.343-0.018,6.567,1.146,9.313,2.89c2.765,1.75,5.131,4.028,7.178,6.516c4.082,5.017,7.043,10.811,9.265,16.813
					c2.197,6.018,3.67,12.321,4.054,18.718c0.108,1.596,0.1,3.207,0.088,4.793c0.002,1.591,0.066,3.18,0.171,4.77
					c0.04,0.796,0.111,1.598,0.02,2.408c-0.082,0.816-0.462,1.564-0.916,2.216C182.934,103.004,181.867,104.19,180.851,105.417z"/>
			</g>
		</g>
		<g>
			<ellipse fill="#FFFFFF" cx="155.964" cy="66.394" rx="10.964" ry="12.969"/>
			<path d="M167.149,66.397c0.029,3.167-0.89,6.408-2.815,9.011c-0.969,1.293-2.191,2.419-3.629,3.216
				c-1.438,0.791-3.08,1.238-4.735,1.253c-1.657-0.004-3.303-0.443-4.75-1.228c-1.444-0.79-2.68-1.916-3.656-3.208
				c-1.967-2.597-2.897-5.854-2.856-9.046c0.01-3.192,0.994-6.417,2.976-8.953c1.945-2.535,5.018-4.308,8.295-4.275
				c1.601,0.006,3.214,0.435,4.619,1.202c1.415,0.765,2.635,1.85,3.612,3.114C166.17,60.008,167.146,63.221,167.149,66.397z
				 M166.71,66.393c-0.001-3.088-0.944-6.205-2.848-8.646c-1.883-2.435-4.81-4.1-7.905-4.061c-3.065-0.016-5.991,1.667-7.839,4.1
				c-1.888,2.434-2.821,5.539-2.815,8.609c0.045,3.073,1.033,6.145,2.937,8.515c1.879,2.364,4.733,3.966,7.725,3.939
				c2.991,0.042,5.865-1.546,7.768-3.908C165.674,72.578,166.675,69.491,166.71,66.393z"/>
		</g>
		<g>
			<path fill="#F7941E" d="M142.688,48.991c0,0-6.809-10.433,2.756-17.874c1.636-0.243,6.912,4.638,6.348,12.871"/>
			<path d="M142.688,48.991c-0.997-1.348-1.713-2.897-2.229-4.516c-0.496-1.626-0.712-3.362-0.557-5.097
				c0.173-1.729,0.725-3.445,1.654-4.931c0.916-1.495,2.143-2.77,3.51-3.813l0.145-0.11l0.141-0.013
				c0.57-0.051,0.937,0.124,1.279,0.279c0.337,0.17,0.635,0.367,0.911,0.582c0.545,0.437,1.017,0.93,1.443,1.452
				c0.856,1.042,1.501,2.225,1.989,3.454c0.974,2.469,1.204,5.166,0.818,7.708c-0.045-1.287-0.141-2.563-0.435-3.795
				c-0.273-1.233-0.671-2.43-1.213-3.553c-0.535-1.122-1.214-2.173-2.015-3.091c-0.404-0.455-0.845-0.877-1.315-1.223
				c-0.234-0.172-0.477-0.328-0.714-0.443c-0.23-0.119-0.494-0.172-0.57-0.159l0.285-0.123c-1.253,1.002-2.375,2.157-3.226,3.49
				c-0.839,1.337-1.426,2.833-1.645,4.411c-0.243,1.575-0.152,3.209,0.16,4.812C141.414,45.918,141.956,47.492,142.688,48.991z"/>
		</g>
		<g>
			<path fill="#F7941E" d="M166.717,48.911c0,0,6.18-10.353-3.386-17.794c-1.636-0.243-6.913,4.638-6.348,12.871"/>
			<path d="M166.717,48.911c0.663-1.52,1.128-3.109,1.349-4.719c0.234-1.606,0.238-3.232-0.074-4.789
				c-0.288-1.563-0.927-3.03-1.788-4.348c-0.871-1.315-2-2.455-3.25-3.454l0.286,0.123c-0.075-0.013-0.34,0.041-0.567,0.159
				c-0.239,0.115-0.481,0.27-0.715,0.443c-0.471,0.346-0.911,0.768-1.315,1.223c-0.803,0.917-1.479,1.969-2.016,3.091
				c-0.539,1.123-0.938,2.318-1.215,3.551c-0.294,1.233-0.388,2.509-0.434,3.796c-0.388-2.542-0.157-5.239,0.816-7.708
				c0.488-1.23,1.133-2.413,1.988-3.455c0.425-0.521,0.898-1.015,1.443-1.452c0.277-0.214,0.577-0.413,0.911-0.582
				c0.341-0.157,0.709-0.331,1.28-0.28l0.141,0.013l0.144,0.11c1.358,1.037,2.579,2.292,3.518,3.757
				c0.947,1.455,1.552,3.135,1.802,4.84c0.23,1.714,0.104,3.45-0.305,5.09C168.289,45.954,167.652,47.531,166.717,48.911z"/>
		</g>
		<g>
			<path fill="#F05872" d="M160.613,69.573c0.061,1.504-1.054,3.001-2.675,3.144c-1.619,0.144-2.792-0.478-2.775-2.928
				c0.183-3.339-2.121-6.104-2.121-6.104c-0.489-1.425,0.271-2.975,1.696-3.463l0,0c1.425-0.487,2.975,0.273,3.463,1.697
				L160.613,69.573z"/>
			<path d="M160.681,69.574c0.352,1.35-0.493,3.034-2.027,3.558c-0.185,0.061-0.379,0.119-0.577,0.143
				c-0.105,0.021-0.186,0.022-0.273,0.031l-0.288,0.017c-0.376,0.006-0.778-0.023-1.183-0.172c-0.397-0.144-0.794-0.411-1.052-0.766
				c-0.261-0.353-0.41-0.744-0.479-1.121c-0.154-0.739-0.019-1.505,0.031-2.099c0.04-0.633-0.021-1.284-0.191-1.908
				c-0.327-1.249-1.033-2.418-1.884-3.335c-0.014-0.015-0.022-0.03-0.031-0.046l-0.035-0.072c-0.34-0.708-0.415-1.607-0.088-2.391
				c0.312-0.783,0.953-1.446,1.751-1.796l0.148-0.065l0.158-0.054c0.08-0.028,0.158-0.05,0.29-0.075
				c0.247-0.052,0.452-0.067,0.674-0.069c0.439-0.01,0.874,0.101,1.271,0.273c0.797,0.34,1.422,1.03,1.696,1.815
				c0.134,0.422,0.204,0.719,0.299,1.061l0.27,1.002l0.53,2.008c0.339,1.342,0.679,2.685,0.988,4.036L160.681,69.574z
				 M160.542,69.58c-0.518-1.281-1.009-2.572-1.497-3.862l-0.719-1.948l-0.354-0.976c-0.129-0.312-0.218-0.693-0.363-0.903
				c-0.601-0.964-1.776-1.305-2.737-0.967c-0.997,0.31-1.664,1.443-1.479,2.64l-0.067-0.118c0.771,1.173,1.302,2.4,1.726,3.69
				c0.199,0.649,0.364,1.313,0.458,2.002c0.045,0.373,0.041,0.681,0.099,0.984c0.048,0.308,0.121,0.601,0.219,0.864
				c0.207,0.536,0.492,0.867,0.928,1.02c0.422,0.177,1.101,0.167,1.593,0.07C159.38,71.85,160.301,70.881,160.542,69.58z"/>
		</g>
		<g>
			<g>
				<path fill="#FFFFFF" d="M158.929,39.283c-1.55,0-3.501,1.18-4.113,2.445c-0.789-2.449-2.336-4.113-4.112-4.113
					c-2.58,0-4.673,3.51-4.673,7.836c0,4.328,2.093,7.837,4.673,7.837c1.777,0,6.448,0,8.226,0c2.58,0,4.673-3.51,4.673-7.837
					C163.602,42.173,161.367,39.283,158.929,39.283z"/>
				<path d="M158.931,39.352c-0.822,0.017-1.613,0.323-2.288,0.772c-0.662,0.459-1.255,1.075-1.519,1.752
					c-0.065,0.169-0.26,0.253-0.428,0.187c-0.088-0.035-0.152-0.103-0.187-0.184l-0.019-0.046c-0.395-0.989-0.964-1.902-1.667-2.599
					c-0.712-0.695-1.568-1.104-2.444-0.972c-0.844,0.111-1.652,0.745-2.272,1.536c-0.626,0.801-1.078,1.778-1.385,2.798
					c-0.626,2.046-0.619,4.331,0.043,6.38c0.335,1.022,0.857,1.992,1.576,2.741c0.726,0.762,1.632,1.203,2.633,1.072
					c2.203-0.091,4.409-0.149,6.608-0.182c0.525-0.017,1.157-0.004,1.599-0.047c0.367-0.043,0.788-0.237,1.144-0.495
					c0.739-0.527,1.295-1.391,1.712-2.304c0.424-0.923,0.667-1.94,0.821-2.971c0.075-0.516,0.113-1.042,0.141-1.564
					c0.015-0.491-0.015-1.016-0.098-1.523c-0.168-1.021-0.579-2.029-1.239-2.868C161.018,39.997,160.022,39.367,158.931,39.352z
					 M158.927,39.213c1.143-0.014,2.201,0.585,3.03,1.352c0.839,0.781,1.462,1.794,1.856,2.899c0.198,0.556,0.333,1.129,0.381,1.738
					c0.053,0.579,0.038,1.156-0.004,1.736c-0.083,1.157-0.356,2.308-0.809,3.409c-0.459,1.093-1.144,2.152-2.204,2.922
					c-0.542,0.371-1.158,0.645-1.893,0.707c-0.659,0.031-1.134-0.01-1.706-0.011c-2.204-0.033-4.407-0.09-6.609-0.182
					c-0.552,0-1.268-0.137-1.782-0.451c-0.543-0.302-0.986-0.715-1.356-1.168c-0.73-0.917-1.18-1.98-1.497-3.057
					c-0.612-2.169-0.693-4.444-0.313-6.683c0.211-1.117,0.578-2.227,1.213-3.239c0.618-0.991,1.606-1.953,2.982-2.157
					c0.649-0.109,1.359,0.013,1.939,0.296c0.597,0.272,1.083,0.693,1.477,1.155c0.793,0.931,1.219,2.044,1.504,3.142l-0.633-0.043
					c0.501-0.813,1.238-1.312,1.99-1.697c0.38-0.2,0.776-0.354,1.179-0.473C158.077,39.287,158.515,39.209,158.927,39.213z"/>
			</g>
			<g>
				<path fill="#FFFFFF" d="M159.997,50.055c-2.895,0-4.57,1.737-5.249,4.226c-0.678-2.489-2.353-4.226-5.25-4.226
					c-3.917,0-7.095,3.175-7.095,7.094c0,3.917,3.177,7.094,7.095,7.094c2.895,0,4.571-1.737,5.25-4.226
					c0.678,2.489,2.353,4.226,5.249,4.226c3.917,0,7.094-3.176,7.094-7.094C167.089,53.231,163.914,50.055,159.997,50.055z"/>
				<path d="M159.997,50.097c-1.21-0.006-2.444,0.334-3.373,1.124c-0.942,0.774-1.51,1.915-1.814,3.078
					c-0.009,0.037-0.044,0.058-0.08,0.048c-0.021-0.006-0.041-0.026-0.049-0.048c-0.398-1.461-1.276-2.853-2.635-3.534
					c-1.343-0.684-2.961-0.68-4.391-0.277c-1.44,0.417-2.732,1.31-3.623,2.502c-0.898,1.19-1.383,2.675-1.375,4.159
					c0.01,1.484,0.515,2.955,1.421,4.121c0.9,1.17,2.19,2.032,3.612,2.408c1.411,0.371,2.994,0.328,4.244-0.351
					c1.27-0.675,2.067-2,2.428-3.415c0.052-0.21,0.267-0.339,0.479-0.284c0.139,0.035,0.246,0.144,0.283,0.273l0.002,0.01
					c0.318,1.128,0.886,2.188,1.761,2.903c0.865,0.723,2.029,1.033,3.175,1.01c2.341-0.018,4.597-1.331,5.787-3.356
					c1.213-2.003,1.306-4.687,0.122-6.803C164.846,51.523,162.457,50.108,159.997,50.097z M159.995,50.014
					c2.497-0.059,4.956,1.318,6.281,3.477c1.347,2.138,1.484,5.054,0.203,7.335c-0.619,1.139-1.548,2.109-2.664,2.791
					c-1.119,0.669-2.434,1.027-3.726,1.039c-1.305,0.028-2.681-0.328-3.724-1.199c-1.054-0.855-1.68-2.093-2-3.333h0.764
					c-0.414,1.533-1.351,3.069-2.854,3.834c-0.739,0.385-1.552,0.572-2.365,0.609c-0.799,0.038-1.613-0.049-2.385-0.271
					c-1.55-0.433-2.937-1.394-3.896-2.675c-0.972-1.277-1.494-2.876-1.479-4.472c0.007-1.594,0.55-3.18,1.526-4.434
					c0.97-1.259,2.354-2.188,3.89-2.581c1.516-0.385,3.198-0.345,4.604,0.413c1.416,0.76,2.273,2.228,2.647,3.715h-0.128
					c0.331-1.178,0.938-2.313,1.887-3.107C157.515,50.353,158.777,50.007,159.995,50.014z"/>
			</g>
			<g>
				<g>
					<path d="M162.771,54.424c0.099-0.707,0.376-1.361,0.659-2.019c0.324-0.633,0.717-1.236,1.156-1.809
						c0.888-1.144,2.074-2.062,3.383-2.712c1.323-0.625,2.765-0.994,4.2-1.021c0.718-0.014,1.427,0.023,2.127,0.114
						c0.7,0.136,1.385,0.268,2.042,0.524l0.012,0.003c0.02,0.009,0.029,0.032,0.02,0.054c-0.007,0.018-0.021,0.028-0.042,0.026
						c-2.695-0.384-5.542-0.172-7.994,1.048c-1.228,0.586-2.339,1.411-3.271,2.405c-0.928,0.996-1.707,2.148-2.212,3.415
						c-0.01,0.02-0.033,0.031-0.054,0.023c-0.021-0.007-0.028-0.026-0.026-0.044L162.771,54.424z"/>
				</g>
				<g>
					<path d="M162.159,57.123c0.553-0.859,1.342-1.519,2.141-2.15c0.829-0.59,1.726-1.085,2.652-1.516
						c1.86-0.856,3.875-1.317,5.888-1.563c2.018-0.212,4.053-0.212,6.049,0.043c0.997,0.127,1.985,0.288,2.968,0.489
						c0.972,0.246,1.941,0.476,2.886,0.819l0.007,0.002c0.021,0.008,0.031,0.032,0.024,0.054c-0.01,0.019-0.028,0.03-0.05,0.026
						c-3.879-0.726-7.862-1.061-11.788-0.605c-1.957,0.217-3.902,0.636-5.746,1.34c-1.822,0.716-3.613,1.676-4.964,3.114
						c-0.02,0.017-0.044,0.018-0.061,0.001C162.15,57.164,162.148,57.14,162.159,57.123z"/>
				</g>
				<g>
					<path d="M163.686,58.556c1.456-0.946,3.198-1.056,4.832-1.207c1.656-0.124,3.311-0.031,4.947,0.113
						c1.637,0.177,3.261,0.409,4.86,0.779c0.8,0.187,1.597,0.376,2.39,0.583c0.783,0.252,1.577,0.463,2.346,0.768l0.009,0.003
						c0.021,0.009,0.031,0.033,0.022,0.053c-0.009,0.019-0.026,0.029-0.046,0.026c-3.206-0.578-6.424-1.078-9.665-1.383
						c-1.617-0.164-3.241-0.282-4.868-0.293c-0.812-0.004-1.624,0.017-2.431,0.094c-0.799,0.089-1.636,0.179-2.347,0.532
						l-0.008,0.003c-0.021,0.01-0.047,0.002-0.059-0.019C163.663,58.589,163.669,58.566,163.686,58.556z"/>
				</g>
			</g>
			<g>
				<g>
					<path d="M146.727,56.006c-0.39-0.574-0.776-1.129-1.231-1.625c-0.418-0.518-0.872-1-1.364-1.433
						c-0.979-0.862-2.02-1.618-3.178-2.162c-1.143-0.576-2.387-0.937-3.672-1.208c-0.646-0.14-1.309-0.219-1.977-0.273
						c-0.672-0.098-1.354-0.106-2.053-0.167l-0.01-0.001c-0.022-0.001-0.04-0.021-0.038-0.044c0.002-0.019,0.019-0.035,0.035-0.037
						c2.702-0.413,5.574-0.231,8.076,0.98c1.242,0.608,2.358,1.457,3.293,2.471c0.926,1.018,1.696,2.183,2.198,3.471
						c0.009,0.021-0.002,0.045-0.021,0.053c-0.021,0.007-0.039,0-0.049-0.016L146.727,56.006z"/>
				</g>
				<g>
					<path d="M147.354,58.729c-0.771-0.619-1.602-1.132-2.481-1.538c-0.859-0.441-1.756-0.801-2.671-1.086
						c-1.834-0.569-3.717-0.962-5.634-1.167c-1.91-0.236-3.854-0.273-5.803-0.281c-0.979-0.006-1.957,0.035-2.937,0.091
						c-0.988,0.014-1.972,0.105-2.973,0.134h-0.008c-0.021,0-0.04-0.018-0.04-0.04c-0.002-0.021,0.015-0.039,0.033-0.041
						c3.88-0.756,7.871-1.121,11.823-0.69c1.969,0.232,3.92,0.667,5.77,1.39c1.833,0.736,3.622,1.708,4.981,3.177
						c0.017,0.017,0.017,0.042-0.001,0.058c-0.017,0.014-0.039,0.014-0.056,0.002L147.354,58.729z"/>
				</g>
				<g>
					<path d="M145.842,60.176c-0.769-0.205-1.58-0.22-2.379-0.196c-0.799-0.008-1.6,0.029-2.4,0.096
						c-1.6,0.134-3.202,0.26-4.803,0.433c-1.608,0.139-3.213,0.33-4.833,0.442l-2.435,0.19c-0.818,0.021-1.633,0.096-2.46,0.088
						h-0.009c-0.022,0-0.042-0.02-0.042-0.041c0-0.021,0.017-0.037,0.034-0.041c3.201-0.605,6.42-1.132,9.663-1.466
						c1.622-0.151,3.254-0.255,4.885-0.252c0.815,0.002,1.632,0.03,2.445,0.114c0.808,0.1,1.633,0.186,2.384,0.567
						c0.021,0.01,0.025,0.033,0.018,0.054c-0.01,0.017-0.026,0.024-0.045,0.02L145.842,60.176z"/>
				</g>
			</g>
			<circle cx="154.428" cy="46.155" r="1.536"/>
			<circle cx="160.235" cy="47.287" r="1.131"/>
		</g>
		<path d="M157.382,51.922c0.012,1.131-2.613,2.033-2.613,2.033s-2.645-0.934-2.656-2.065c-0.013-1.132,1.157-2.042,2.613-2.034
			C156.18,49.865,157.368,50.791,157.382,51.922z"/>
		<g>
			<g>
				<path fill="#FFFFFF" d="M188.068,74.229c1.908,1.042,1.462,5.23,1.462,5.23s1.333-6.446,5.887-4.073
					c4.748,2.474-0.152,7.622-0.152,7.622s3.21-2.328,4.96-1.614c2.277,0.929,2.283,4.082,0.072,6.334
					c-10.867,11.102-18.166,23.67-23.79,21.46c-10.562-4.154,3.782-12.459,6.235-28.85
					C183.734,73.685,186.709,73.485,188.068,74.229z"/>
				<path d="M188.25,73.888l0.021,0.016c0.458,0.261,0.846,0.749,1.057,1.211c0.219,0.475,0.347,0.968,0.427,1.456
					c0.161,0.979,0.152,1.95,0.034,2.925l0,0l-0.515-0.081c0.138-0.758,0.362-1.474,0.692-2.169
					c0.325-0.691,0.742-1.359,1.342-1.906c0.597-0.541,1.436-0.898,2.273-0.873c0.835,0.013,1.612,0.317,2.276,0.693
					c0.693,0.396,1.337,0.941,1.718,1.711c0.387,0.761,0.424,1.652,0.262,2.432c-0.348,1.584-1.225,2.864-2.244,4.023l-0.015-0.013
					l-0.002,0.002l-0.572-0.657c0.786-0.56,1.594-1.034,2.492-1.418c0.451-0.181,0.917-0.341,1.431-0.421
					c0.495-0.083,1.109-0.069,1.623,0.18c1.012,0.42,1.734,1.458,1.866,2.514c0.159,1.059-0.103,2.097-0.559,2.988
					c-0.439,0.91-1.193,1.646-1.8,2.283l-1.86,2.018c-1.219,1.369-2.442,2.734-3.636,4.131c-1.188,1.399-2.392,2.79-3.608,4.173
					c-1.204,1.394-2.445,2.76-3.724,4.094c-1.28,1.337-2.587,2.656-4.023,3.838c-0.715,0.594-1.457,1.169-2.268,1.643
					c-0.812,0.468-1.705,0.855-2.669,0.945c-0.479,0.058-0.976,0.023-1.446-0.101c-0.484-0.136-0.883-0.321-1.322-0.517
					c-0.843-0.408-1.678-0.913-2.301-1.683c-0.645-0.755-0.934-1.813-0.852-2.785c0.067-0.979,0.368-1.9,0.715-2.775
					c0.718-1.744,1.605-3.375,2.507-4.977c0.904-1.601,1.772-3.214,2.606-4.831c1.652-3.244,3.007-6.632,3.771-10.175
					c0.2-0.885,0.313-1.771,0.521-2.715c0.209-0.922,0.478-1.84,0.889-2.719c0.416-0.864,0.975-1.737,1.857-2.313
					C186.087,73.441,187.316,73.354,188.25,73.888z M187.878,74.568c-0.691-0.362-1.553-0.294-2.201,0.166
					c-0.66,0.452-1.139,1.197-1.49,1.989c-0.351,0.798-0.581,1.66-0.759,2.536c-0.169,0.858-0.263,1.808-0.439,2.721
					c-0.671,3.688-2.022,7.22-3.725,10.521c-0.838,1.66-1.801,3.245-2.737,4.827c-0.926,1.588-1.938,3.126-2.698,4.757
					c-0.38,0.812-0.694,1.653-0.799,2.506c-0.112,0.855,0.074,1.711,0.594,2.398c0.52,0.692,1.293,1.182,2.088,1.588
					c0.817,0.404,1.638,0.747,2.524,0.635c0.875-0.091,1.705-0.474,2.471-0.938c0.77-0.472,1.483-1.038,2.162-1.644
					c1.338-1.237,2.557-2.605,3.738-4.004c2.355-2.812,4.62-5.709,7.044-8.494c1.208-1.393,2.418-2.789,3.688-4.134l1.921-2.005
					c0.672-0.675,1.263-1.245,1.644-2.003c0.384-0.731,0.599-1.564,0.492-2.338c-0.096-0.774-0.549-1.439-1.246-1.756
					c-0.607-0.318-1.498-0.102-2.295,0.202c-0.807,0.32-1.606,0.767-2.329,1.257l-0.015,0.01c-0.199,0.139-0.472,0.084-0.605-0.115
					c-0.119-0.175-0.094-0.401,0.046-0.546l0,0l-0.011-0.013c0.915-1.026,1.724-2.282,2.021-3.579c0.14-0.65,0.111-1.308-0.163-1.87
					c-0.264-0.564-0.779-1.021-1.346-1.361c-0.604-0.354-1.241-0.6-1.885-0.618c-0.639-0.024-1.25,0.22-1.752,0.65
					c-1.025,0.862-1.618,2.262-2.028,3.597l-0.013,0.034c-0.042,0.138-0.186,0.214-0.323,0.174c-0.124-0.04-0.199-0.163-0.181-0.289
					l0,0c0.041-0.913-0.002-1.856-0.174-2.748c-0.091-0.441-0.222-0.873-0.419-1.253C188.471,75.051,188.244,74.768,187.878,74.568z
					"/>
			</g>
		</g>
		<g>
			<g>
				<path fill="#FFFFFF" d="M122.125,74.229c-1.91,1.042-1.462,5.23-1.462,5.23s-1.332-6.446-5.885-4.073
					c-4.748,2.474,0.148,7.622,0.148,7.622s-3.208-2.328-4.955-1.614c-2.277,0.929-2.284,4.082-0.075,6.334
					c10.867,11.102,18.167,23.67,23.793,21.46c10.56-4.154-3.782-12.459-6.237-28.85C126.458,73.685,123.484,73.485,122.125,74.229z
					"/>
				<path d="M122.329,74.557c-0.378,0.202-0.606,0.487-0.817,0.875c-0.197,0.379-0.329,0.809-0.42,1.252
					c-0.172,0.892-0.215,1.835-0.174,2.748l0,0c0.021,0.142-0.077,0.274-0.218,0.3c-0.13,0.021-0.251-0.06-0.289-0.181l-0.01-0.033
					c-0.412-1.338-1.005-2.734-2.03-3.595c-0.501-0.429-1.113-0.676-1.752-0.653c-0.642,0.021-1.28,0.26-1.883,0.619
					c-0.572,0.338-1.085,0.8-1.348,1.362c-0.275,0.562-0.303,1.218-0.163,1.87c0.3,1.297,1.106,2.553,2.02,3.576l-0.011,0.016h0.002
					c0.166,0.174,0.161,0.449-0.014,0.618c-0.151,0.145-0.38,0.159-0.547,0.045l-0.015-0.009c-0.721-0.49-1.521-0.935-2.327-1.255
					c-0.798-0.306-1.687-0.523-2.295-0.205c-0.698,0.314-1.15,0.981-1.246,1.757c-0.106,0.775,0.104,1.608,0.492,2.338
					c0.379,0.758,0.973,1.326,1.645,2.002l1.918,2.004c1.267,1.345,2.479,2.74,3.689,4.134c2.421,2.782,4.688,5.686,7.042,8.493
					c1.182,1.398,2.403,2.769,3.739,4.004c0.681,0.606,1.391,1.175,2.161,1.644c0.765,0.464,1.597,0.85,2.472,0.939
					c0.888,0.11,1.706-0.229,2.524-0.633c0.797-0.408,1.568-0.899,2.088-1.588c0.52-0.69,0.705-1.546,0.595-2.401
					c-0.104-0.854-0.42-1.696-0.8-2.505c-0.76-1.631-1.775-3.167-2.696-4.754c-0.938-1.585-1.903-3.169-2.737-4.829
					c-1.7-3.303-3.055-6.839-3.725-10.521c-0.179-0.919-0.271-1.863-0.439-2.723c-0.179-0.875-0.409-1.739-0.759-2.538
					c-0.351-0.788-0.828-1.537-1.491-1.985c-0.649-0.459-1.514-0.532-2.206-0.169L122.329,74.557z M121.94,73.888
					c0.933-0.533,2.164-0.447,3.037,0.143c0.884,0.578,1.441,1.447,1.857,2.314c0.412,0.879,0.677,1.796,0.889,2.718
					c0.207,0.945,0.318,1.83,0.519,2.715c0.767,3.543,2.122,6.932,3.772,10.175c0.834,1.619,1.698,3.231,2.608,4.833
					c0.9,1.602,1.787,3.231,2.506,4.975c0.346,0.873,0.648,1.795,0.715,2.773c0.083,0.979-0.208,2.033-0.85,2.787
					c-0.625,0.769-1.459,1.273-2.301,1.682c-0.44,0.195-0.84,0.382-1.322,0.518c-0.471,0.126-0.967,0.157-1.444,0.101
					c-0.967-0.096-1.858-0.478-2.669-0.946c-0.817-0.474-1.556-1.048-2.268-1.645c-1.44-1.18-2.744-2.5-4.024-3.835
					c-1.277-1.338-2.519-2.702-3.727-4.095c-1.217-1.381-2.418-2.775-3.607-4.172c-1.193-1.396-2.415-2.767-3.636-4.132
					l-1.859-2.018c-0.607-0.637-1.361-1.372-1.799-2.282c-0.456-0.896-0.718-1.935-0.559-2.989c0.135-1.058,0.854-2.094,1.866-2.515
					c0.514-0.253,1.131-0.262,1.624-0.18c0.513,0.079,0.979,0.239,1.429,0.422c0.898,0.379,1.703,0.857,2.491,1.416l-0.572,0.657
					v-0.002l-0.014,0.011c-1.018-1.158-1.896-2.438-2.244-4.021c-0.162-0.779-0.125-1.671,0.263-2.433
					c0.382-0.769,1.027-1.315,1.719-1.712c0.663-0.374,1.439-0.68,2.275-0.69c0.839-0.025,1.677,0.33,2.273,0.87
					c0.599,0.547,1.018,1.218,1.342,1.907c0.327,0.695,0.556,1.411,0.693,2.169l-0.516,0.081l0,0
					c-0.116-0.976-0.125-1.943,0.036-2.926c0.08-0.49,0.207-0.979,0.426-1.455c0.211-0.459,0.595-0.949,1.058-1.212L121.94,73.888z"
					/>
			</g>
		</g>
		<g>
			<path fill="#FFFFFF" d="M139.165,117.781c1.458,0.783,2.299,2.278,2.299,2.278l-2.478,2.34l2.896,2.194
				c0,0-1.627,1.458-1.309,2.537c15.055-1.021,18.189-4.159,18.818-8.488C154.815,120.01,153.162,113.797,139.165,117.781z"/>
			<path d="M139.165,117.781c0.992,0.475,1.822,1.259,2.446,2.196c0.039,0.062,0.032,0.14-0.019,0.189l-0.015,0.016l-2.377,2.444
				l-0.024-0.478c0.995,0.69,1.974,1.41,2.96,2.112c0.185,0.13,0.228,0.386,0.099,0.567l-0.044,0.053l-0.021,0.024
				c-0.316,0.313-0.63,0.691-0.854,1.068c-0.229,0.373-0.352,0.799-0.26,1.021l-0.511-0.356c3.68-0.375,7.368-0.78,10.887-1.722
				c1.742-0.48,3.455-1.12,4.851-2.126c0.691-0.505,1.277-1.116,1.69-1.837c0.42-0.718,0.658-1.539,0.797-2.404l0.812,0.699
				c-0.929,0.281-1.978,0.265-2.883,0.019c-0.911-0.243-1.714-0.605-2.501-0.938c-1.561-0.687-3.156-1.19-4.836-1.395
				C145.997,116.535,142.534,117.033,139.165,117.781z M139.165,117.781c1.633-0.58,3.312-1.031,5.028-1.352
				c1.711-0.328,3.479-0.466,5.245-0.334c1.769,0.115,3.532,0.573,5.168,1.195c0.818,0.299,1.603,0.637,2.375,0.812
				c0.767,0.18,1.506,0.166,2.235-0.069c0.328-0.105,0.68,0.074,0.785,0.402c0.028,0.089,0.037,0.181,0.024,0.268l-0.004,0.029
				c-0.122,0.974-0.404,1.972-0.915,2.871c-0.505,0.898-1.228,1.658-2.03,2.256c-1.618,1.2-3.478,1.83-5.305,2.329
				c-1.84,0.49-3.702,0.784-5.568,1.009c-1.86,0.229-3.729,0.361-5.596,0.432h-0.025c-0.229,0.011-0.426-0.143-0.485-0.355
				c-0.1-0.37-0.043-0.724,0.052-1.018c0.101-0.292,0.238-0.541,0.39-0.775c0.312-0.459,0.659-0.838,1.067-1.205l0.025,0.647
				c-0.942-0.764-1.899-1.507-2.835-2.282l-0.021-0.018c-0.13-0.106-0.146-0.297-0.04-0.425l0.033-0.037l2.577-2.229l-0.03,0.203
				C140.805,119.227,140.088,118.365,139.165,117.781z"/>
		</g>
		<g>
			<path fill="#ED1C24" d="M160.212,17.384c-0.313,0.178-0.499,0.536-1.079-0.403c-0.269-0.435-0.927-1.245-1.404-2.664
				c-0.219-0.644-0.271-1.067-0.311-1.339c-0.174-1.249,0.732-2.244,2.025-2.221c1.293,0.023,1.845,0.667,2.018,1.917
				c0.023,0.174,0.082,0.122,0.178-0.019c0.325-0.483,1.266-1.03,1.875-0.703c0.538,0.29,0.788,0.532,0.694,1.445
				C164.096,14.521,162.132,16.292,160.212,17.384z"/>
			<path d="M160.262,17.468c-0.104,0.055-0.177,0.125-0.308,0.185c-0.127,0.07-0.315,0.034-0.417-0.048
				c-0.21-0.161-0.335-0.365-0.46-0.566c-0.246-0.389-0.517-0.779-0.741-1.189c-0.447-0.824-0.791-1.708-0.955-2.639
				c-0.09-0.456-0.087-0.973,0.128-1.414c0.2-0.448,0.593-0.798,1.044-0.982c0.459-0.187,0.955-0.199,1.436-0.119
				c0.479,0.071,0.966,0.348,1.226,0.784c0.134,0.211,0.226,0.443,0.286,0.677c0.029,0.117,0.061,0.235,0.079,0.353l0.028,0.167
				c-0.006,0.039,0.039,0.026-0.047-0.025c-0.158-0.007-0.086,0.018-0.09-0.005c0.254-0.396,0.692-0.719,1.163-0.872
				c0.237-0.078,0.509-0.112,0.779-0.036c0.278,0.101,0.448,0.209,0.663,0.398c0.203,0.191,0.3,0.486,0.313,0.734
				c0.014,0.251,0.006,0.498-0.056,0.746c-0.144,0.503-0.438,0.89-0.741,1.256c-0.309,0.363-0.65,0.692-1.01,0.996
				C161.859,16.481,161.081,17.011,160.262,17.468z M160.162,17.301c0.797-0.471,1.549-1.02,2.236-1.635
				c0.658-0.616,1.371-1.304,1.619-2.122c0.07-0.407,0.086-0.915-0.183-1.17c-0.123-0.125-0.358-0.273-0.521-0.327
				c-0.18-0.056-0.395-0.04-0.596,0.023c-0.412,0.134-0.781,0.377-1.041,0.762c-0.046,0.014-0.016,0.104-0.229,0.081
				c-0.138-0.084-0.104-0.162-0.121-0.178l-0.027-0.178c-0.017-0.112-0.042-0.221-0.065-0.33c-0.053-0.217-0.131-0.425-0.243-0.61
				c-0.22-0.378-0.609-0.614-1.05-0.693c-0.436-0.083-0.905-0.082-1.317,0.079c-0.41,0.159-0.771,0.465-0.962,0.869
				c-0.205,0.402-0.223,0.863-0.143,1.318c0.129,0.914,0.479,1.791,0.93,2.596c0.225,0.406,0.498,0.777,0.76,1.17
				c0.122,0.19,0.26,0.385,0.426,0.504C159.8,17.592,159.947,17.44,160.162,17.301z"/>
		</g>
		<g>
			<path fill="#ED1C24" d="M116,21.625c-0.027,0.583,0.3,1.145-1.482,1.125c-0.827-0.009-2.501,0.189-4.852-0.385
				c-1.066-0.26-1.692-0.552-2.099-0.736c-1.856-0.843-2.433-2.94-1.28-4.685c1.147-1.745,2.506-1.942,4.36-1.099
				c0.261,0.118,0.235-0.004,0.125-0.257c-0.377-0.862-0.313-2.619,0.664-3.169c0.861-0.486,1.406-0.617,2.575,0.301
				C115.447,13.846,116.168,18.059,116,21.625z"/>
			<path d="M116.156,21.631c-0.015,0.175,0.021,0.355-0.011,0.579c-0.017,0.235-0.228,0.462-0.428,0.528
				c-0.4,0.151-0.789,0.14-1.171,0.14c-0.742-0.002-1.508,0.03-2.266-0.018c-1.515-0.102-3.021-0.396-4.431-0.977
				c-0.701-0.26-1.408-0.724-1.823-1.396c-0.431-0.663-0.585-1.498-0.438-2.275c0.139-0.791,0.557-1.479,1.079-2.063
				c0.512-0.593,1.31-1.017,2.127-0.994c0.404,0,0.801,0.077,1.174,0.194c0.188,0.06,0.373,0.121,0.55,0.198l0.256,0.104
				c0.025,0.012,0.046,0.016,0.03,0.01c0.018,0.004-0.043-0.014-0.104,0.03c-0.043,0.015-0.078,0.09-0.078,0.108
				c-0.004,0.011-0.006,0.024-0.004,0.036c0,0.002-0.004-0.012-0.006-0.021c-0.32-0.69-0.382-1.568-0.187-2.344
				c0.103-0.394,0.287-0.794,0.625-1.096c0.08-0.076,0.185-0.136,0.272-0.196l0.258-0.14c0.18-0.091,0.371-0.174,0.586-0.225
				c0.438-0.115,0.923,0.01,1.271,0.209c0.354,0.198,0.687,0.422,0.974,0.719c0.563,0.63,0.838,1.368,1.074,2.1
				c0.229,0.736,0.383,1.487,0.487,2.242C116.19,18.594,116.244,20.116,116.156,21.631z M115.844,21.619
				c0.043-1.495-0.053-2.997-0.301-4.467c-0.127-0.733-0.287-1.461-0.516-2.162c-0.229-0.69-0.523-1.394-0.98-1.885
				c-0.494-0.452-1.174-0.911-1.754-0.765c-0.152,0.032-0.313,0.096-0.469,0.171l-0.24,0.126c-0.063,0.044-0.131,0.077-0.188,0.129
				c-0.231,0.198-0.396,0.502-0.481,0.834c-0.174,0.677-0.162,1.394,0.141,2.08c0.009,0.036,0.02,0.067,0.021,0.116
				c0.002,0.035,0,0.071-0.006,0.106c-0.005,0.041-0.061,0.132-0.111,0.167c-0.104,0.059-0.211,0.048-0.239,0.037
				c-0.063-0.013-0.086-0.024-0.104-0.032l-0.268-0.114c-0.167-0.076-0.338-0.136-0.509-0.194c-0.343-0.115-0.694-0.188-1.046-0.194
				c-0.703-0.028-1.365,0.302-1.854,0.833c-0.486,0.521-0.896,1.165-1.031,1.867c-0.146,0.701-0.023,1.455,0.354,2.067
				c0.38,0.626,0.979,1.053,1.682,1.333c1.358,0.613,2.86,0.893,4.35,0.975c0.75,0.046,1.492-0.006,2.257-0.024
				c0.364-0.006,0.753-0.019,1.057-0.146C115.934,22.368,115.846,22.039,115.844,21.619z"/>
		</g>
		<g>
			<path fill="#ED1C24" d="M179.471,28.699c-0.401-0.118-0.847,0.012-0.526-1.221c0.149-0.571,0.301-1.766,1.103-3.297
				c0.364-0.694,0.674-1.08,0.873-1.328c0.903-1.144,2.457-1.18,3.469-0.082c1.012,1.098,0.916,2.073,0.013,3.215
				c-0.127,0.16-0.037,0.165,0.155,0.131c0.664-0.112,1.87,0.235,2.084,1.006c0.189,0.682,0.184,1.081-0.653,1.733
				C184.959,29.655,181.913,29.43,179.471,28.699z"/>
			<path d="M179.438,28.805c-0.127-0.04-0.245-0.046-0.399-0.107c-0.161-0.049-0.28-0.236-0.292-0.385
				c-0.03-0.303,0.038-0.571,0.106-0.833c0.13-0.516,0.238-1.052,0.401-1.568c0.33-1.031,0.794-2.025,1.44-2.903
				c0.307-0.44,0.741-0.851,1.283-1.022c0.532-0.192,1.137-0.145,1.651,0.087c0.522,0.235,0.929,0.64,1.243,1.103
				c0.323,0.456,0.478,1.081,0.321,1.646c-0.069,0.28-0.19,0.541-0.337,0.779c-0.073,0.118-0.148,0.236-0.232,0.347l-0.116,0.157
				c-0.036,0.026,0.011,0.058-0.017-0.058c-0.117-0.138-0.082-0.057-0.067-0.079c0.534-0.104,1.154,0.005,1.655,0.274
				c0.258,0.137,0.505,0.336,0.653,0.621c0.139,0.313,0.183,0.541,0.197,0.874c0.004,0.324-0.165,0.639-0.364,0.844
				c-0.197,0.213-0.41,0.403-0.665,0.552c-0.535,0.281-1.094,0.345-1.641,0.383c-0.55,0.031-1.098,0.008-1.639-0.049
				C181.539,29.353,180.474,29.126,179.438,28.805z M179.501,28.591c1.027,0.288,2.087,0.481,3.146,0.56
				c1.041,0.059,2.183,0.105,3.063-0.341c0.401-0.263,0.833-0.656,0.833-1.083c0.007-0.205-0.059-0.517-0.143-0.695
				c-0.098-0.194-0.279-0.36-0.494-0.479c-0.442-0.238-0.94-0.354-1.469-0.263c-0.048-0.026-0.097,0.073-0.252-0.13
				c-0.035-0.182,0.054-0.214,0.054-0.241l0.126-0.165c0.081-0.103,0.152-0.212,0.224-0.319c0.138-0.22,0.251-0.45,0.314-0.69
				c0.143-0.483,0.028-0.998-0.259-1.427c-0.273-0.427-0.656-0.821-1.116-1.037c-0.937-0.479-2.134-0.076-2.709,0.823
				c-0.656,0.839-1.112,1.831-1.424,2.85c-0.161,0.512-0.253,1.035-0.372,1.566c-0.062,0.255-0.113,0.526-0.08,0.757
				C178.969,28.522,179.212,28.523,179.501,28.591z"/>
		</g>
		<g>
			<path fill="#ED1C24" d="M132.988,9.955c-0.122,0.261-0.078,0.579-0.889,0.234c-0.377-0.161-1.181-0.387-2.145-1.091
				c-0.438-0.321-0.67-0.572-0.82-0.733c-0.688-0.735-0.556-1.802,0.301-2.382c0.854-0.581,1.512-0.415,2.199,0.322
				c0.096,0.102,0.108,0.042,0.104-0.094c-0.008-0.465,0.353-1.257,0.902-1.324c0.484-0.059,0.76-0.017,1.119,0.624
				C134.205,6.296,133.738,8.357,132.988,9.955z"/>
			<path d="M133.061,9.986c-0.041,0.083-0.059,0.164-0.115,0.264c-0.051,0.104-0.189,0.167-0.295,0.16
				c-0.211-0.008-0.387-0.083-0.562-0.157c-0.339-0.142-0.692-0.271-1.03-0.436c-0.67-0.333-1.305-0.75-1.841-1.282
				c-0.27-0.256-0.506-0.595-0.567-0.983c-0.074-0.384,0.021-0.793,0.229-1.122c0.216-0.333,0.532-0.57,0.882-0.739
				c0.346-0.174,0.79-0.217,1.16-0.052c0.186,0.077,0.35,0.187,0.498,0.311c0.074,0.062,0.146,0.125,0.215,0.193l0.096,0.097
				c0.017,0.027,0.039-0.001-0.041,0.004c-0.106,0.066-0.047,0.051-0.062,0.038c-0.017-0.376,0.12-0.787,0.356-1.105
				c0.121-0.161,0.281-0.308,0.494-0.382c0.228-0.062,0.389-0.07,0.614-0.045c0.224,0.03,0.419,0.18,0.541,0.335
				c0.12,0.149,0.242,0.337,0.306,0.507c0.242,0.8,0.063,1.552-0.104,2.283C133.65,8.606,133.384,9.31,133.061,9.986z
				 M132.918,9.923c0.3-0.676,0.545-1.379,0.707-2.099c0.148-0.703,0.289-1.486,0.083-2.125c-0.144-0.311-0.365-0.641-0.658-0.687
				c-0.138-0.025-0.36-0.012-0.489,0.026c-0.146,0.047-0.274,0.155-0.377,0.289c-0.207,0.276-0.338,0.607-0.33,0.977
				c-0.021,0.03,0.039,0.074-0.115,0.16c-0.125,0.006-0.141-0.057-0.157-0.061L131.48,6.3c-0.063-0.066-0.129-0.126-0.195-0.184
				C131.148,6,131,5.9,130.841,5.831c-0.64-0.294-1.427,0.138-1.825,0.689c-0.427,0.593-0.271,1.451,0.285,1.937
				c0.506,0.538,1.139,0.949,1.805,1.266c0.334,0.163,0.683,0.279,1.035,0.414c0.166,0.068,0.349,0.131,0.51,0.133
				C132.816,10.28,132.842,10.113,132.918,9.923z"/>
		</g>
		<g>
			<path fill="#ED1C24" d="M114.314,45.671c0.139,0.233,0.413,0.367-0.287,0.818c-0.321,0.21-0.922,0.717-1.982,1.099
				c-0.481,0.175-0.799,0.223-1.004,0.254c-0.938,0.15-1.7-0.517-1.702-1.49c-0.004-0.973,0.474-1.398,1.412-1.549
				c0.131-0.021,0.091-0.063-0.018-0.132c-0.369-0.239-0.796-0.938-0.559-1.402c0.211-0.41,0.387-0.602,1.078-0.546
				C112.096,42.792,113.461,44.243,114.314,45.671z"/>
			<path d="M114.375,45.633c0.044,0.077,0.1,0.131,0.146,0.229c0.055,0.095,0.028,0.237-0.029,0.314
				c-0.12,0.16-0.269,0.259-0.42,0.356c-0.289,0.19-0.579,0.399-0.884,0.576c-0.617,0.349-1.274,0.623-1.974,0.761
				c-0.691,0.205-1.547-0.134-1.821-0.845c-0.148-0.343-0.163-0.717-0.111-1.079c0.046-0.36,0.248-0.73,0.572-0.933
				c0.157-0.104,0.329-0.176,0.504-0.227c0.09-0.023,0.178-0.048,0.264-0.064l0.126-0.024c0.027,0.003,0.02-0.031-0.02,0.035
				c-0.004,0.118,0.015,0.063-0.002,0.068c-0.306-0.186-0.553-0.511-0.675-0.862c-0.062-0.179-0.095-0.382-0.04-0.587
				c0.07-0.21,0.148-0.34,0.29-0.504c0.32-0.32,0.758-0.27,1.104-0.217c0.75,0.236,1.245,0.771,1.728,1.286
				C113.609,44.445,114.019,45.023,114.375,45.633z M114.252,45.71c-0.369-0.591-0.791-1.152-1.266-1.658
				c-0.473-0.486-1.011-1.009-1.618-1.186c-0.32-0.053-0.695-0.053-0.886,0.152c-0.212,0.235-0.339,0.537-0.212,0.844
				c0.107,0.307,0.298,0.583,0.589,0.771c0.013,0.033,0.078,0.008,0.063,0.174c-0.06,0.104-0.119,0.082-0.131,0.093l-0.137,0.024
				c-0.084,0.014-0.165,0.035-0.247,0.056c-0.163,0.043-0.318,0.106-0.457,0.194c-0.566,0.344-0.645,1.188-0.425,1.791
				c0.24,0.645,0.99,0.977,1.665,0.798c0.685-0.112,1.34-0.39,1.938-0.741c0.302-0.176,0.579-0.386,0.87-0.59
				c0.142-0.096,0.287-0.201,0.375-0.328C114.478,45.978,114.361,45.871,114.252,45.71z"/>
		</g>
		<g>
			<path fill="#ED1C24" d="M79.386,46.639c0.213,0.357,0.628,0.562-0.438,1.25c-0.494,0.32-1.409,1.095-3.028,1.679
				c-0.735,0.265-1.221,0.338-1.534,0.388c-1.432,0.229-2.597-0.789-2.601-2.276c-0.004-1.486,0.723-2.135,2.155-2.365
				c0.2-0.033,0.139-0.095-0.027-0.202c-0.561-0.364-1.214-1.431-0.851-2.142c0.32-0.626,0.593-0.918,1.646-0.834
				C76,42.242,78.083,44.458,79.386,46.639z"/>
			<path d="M79.48,46.58c0.066,0.116,0.149,0.2,0.221,0.349c0.084,0.145,0.045,0.362-0.046,0.48
				c-0.181,0.245-0.413,0.395-0.64,0.543c-0.441,0.291-0.883,0.61-1.35,0.879c-0.937,0.534-1.946,0.951-3.011,1.162
				c-0.522,0.115-1.117,0.125-1.629-0.114c-0.519-0.22-0.93-0.662-1.153-1.176c-0.225-0.524-0.251-1.095-0.17-1.647
				c0.07-0.552,0.377-1.116,0.873-1.424c0.24-0.159,0.504-0.269,0.772-0.345c0.134-0.038,0.269-0.074,0.404-0.099l0.192-0.038
				c0.044,0.004,0.028-0.046-0.029,0.054c-0.004,0.18,0.024,0.097-0.003,0.104c-0.464-0.284-0.842-0.78-1.031-1.318
				c-0.095-0.272-0.142-0.584-0.06-0.896c0.109-0.322,0.23-0.52,0.443-0.771c0.214-0.24,0.55-0.356,0.835-0.375
				c0.289-0.022,0.573-0.019,0.86,0.044c0.581,0.153,1.034,0.482,1.462,0.823c0.424,0.348,0.811,0.732,1.169,1.139
				C78.307,44.766,78.937,45.647,79.48,46.58z M79.291,46.698c-0.562-0.904-1.209-1.758-1.934-2.532
				c-0.724-0.742-1.531-1.544-2.478-1.813c-0.47-0.074-1.054-0.079-1.341,0.235c-0.142,0.146-0.306,0.42-0.364,0.604
				c-0.06,0.209-0.037,0.453,0.041,0.685c0.163,0.469,0.452,0.892,0.899,1.178c0.017,0.05,0.119,0.013,0.1,0.265
				c-0.093,0.158-0.183,0.125-0.201,0.143L73.81,45.5c-0.129,0.021-0.254,0.052-0.378,0.084c-0.249,0.066-0.486,0.162-0.697,0.295
				c-0.429,0.259-0.692,0.715-0.771,1.221c-0.085,0.501-0.072,1.044,0.121,1.513c0.365,0.985,1.514,1.492,2.542,1.22
				c1.047-0.171,2.048-0.595,2.963-1.131c0.462-0.268,0.882-0.589,1.327-0.901c0.216-0.146,0.438-0.308,0.57-0.501
				C79.635,47.107,79.456,46.943,79.291,46.698z"/>
		</g>
		<g>
			<path fill="#ED1C24" d="M24.599,16.66c-0.093,0.405,0.064,0.84-1.181,0.599c-0.578-0.111-1.775-0.186-3.348-0.886
				c-0.714-0.318-1.115-0.602-1.375-0.782c-1.192-0.826-1.327-2.368-0.3-3.443c1.026-1.075,2-1.04,3.192-0.213
				c0.167,0.115,0.166,0.027,0.121-0.164c-0.154-0.652,0.115-1.873,0.868-2.135c0.665-0.229,1.063-0.252,1.764,0.538
				C25.201,11.144,25.17,14.185,24.599,16.66z"/>
			<path d="M24.708,16.683c-0.033,0.129-0.031,0.248-0.082,0.405c-0.04,0.162-0.217,0.292-0.365,0.315
				c-0.3,0.052-0.571-0.001-0.838-0.051c-0.519-0.096-1.06-0.171-1.583-0.3c-1.046-0.263-2.063-0.661-2.977-1.247
				c-0.456-0.278-0.892-0.684-1.097-1.21c-0.223-0.518-0.213-1.121-0.018-1.647c0.201-0.534,0.577-0.964,1.018-1.306
				c0.433-0.35,1.045-0.545,1.616-0.424c0.283,0.052,0.55,0.156,0.796,0.285c0.123,0.065,0.245,0.132,0.36,0.209l0.165,0.105
				c0.028,0.033,0.054-0.012-0.056,0.019c-0.13,0.126-0.051,0.087-0.076,0.074c-0.138-0.525-0.068-1.146,0.169-1.665
				c0.12-0.263,0.302-0.519,0.577-0.688c0.301-0.156,0.525-0.216,0.854-0.25c0.321-0.024,0.644,0.125,0.862,0.309
				c0.224,0.184,0.426,0.383,0.589,0.627c0.313,0.513,0.412,1.064,0.485,1.607c0.065,0.544,0.079,1.089,0.056,1.631
				C25.118,14.562,24.962,15.633,24.708,16.683z M24.491,16.636c0.221-1.041,0.345-2.104,0.358-3.165
				c-0.009-1.037-0.035-2.174-0.533-3.023c-0.288-0.379-0.706-0.787-1.13-0.759c-0.203,0.007-0.511,0.092-0.681,0.185
				c-0.188,0.109-0.34,0.301-0.445,0.522c-0.207,0.452-0.291,0.956-0.166,1.473c-0.023,0.048,0.078,0.092-0.114,0.26
				c-0.176,0.046-0.215-0.038-0.242-0.038l-0.172-0.114c-0.107-0.074-0.22-0.138-0.332-0.201c-0.226-0.124-0.463-0.22-0.707-0.27
				c-0.489-0.109-0.995,0.037-1.402,0.347c-0.409,0.303-0.774,0.703-0.959,1.176c-0.418,0.964,0.059,2.125,0.99,2.64
				c0.874,0.602,1.89,0.989,2.921,1.235c0.519,0.127,1.044,0.186,1.582,0.269c0.257,0.045,0.529,0.081,0.758,0.033
				C24.455,17.169,24.44,16.928,24.491,16.636z"/>
		</g>
		<g>
			<path fill="#ED1C24" d="M98.014,51.569c0.242,0.149,0.558,0.143,0.128,0.896c-0.199,0.35-0.51,1.108-1.309,1.971
				c-0.363,0.393-0.635,0.59-0.809,0.718c-0.797,0.59-1.824,0.338-2.294-0.563c-0.47-0.901-0.233-1.523,0.564-2.114
				c0.111-0.083,0.054-0.101-0.08-0.114c-0.456-0.043-1.187-0.486-1.19-1.031c-0.003-0.481,0.07-0.744,0.736-1.024
				C94.577,49.967,96.538,50.656,98.014,51.569z"/>
			<path d="M98.053,51.504c0.077,0.05,0.154,0.074,0.244,0.143c0.096,0.061,0.142,0.205,0.123,0.305
				c-0.032,0.206-0.126,0.369-0.217,0.531c-0.176,0.315-0.343,0.648-0.542,0.958C97.26,54.06,96.78,54.63,96.2,55.093
				c-0.54,0.521-1.498,0.62-2.095,0.093c-0.301-0.247-0.497-0.585-0.621-0.945c-0.131-0.357-0.123-0.796,0.081-1.139
				c0.095-0.172,0.221-0.322,0.359-0.453c0.069-0.065,0.139-0.129,0.214-0.187l0.104-0.083c0.027-0.01,0.007-0.04,0,0.038
				c0.052,0.116,0.045,0.054,0.031,0.067c-0.37-0.026-0.757-0.208-1.04-0.475c-0.144-0.135-0.27-0.31-0.318-0.524
				c-0.035-0.229-0.024-0.388,0.025-0.607c0.145-0.451,0.574-0.614,0.919-0.732c0.809-0.146,1.523,0.115,2.219,0.36
				C96.772,50.771,97.429,51.111,98.053,51.504z M97.975,51.635c-0.626-0.37-1.286-0.688-1.97-0.927
				c-0.67-0.224-1.419-0.451-2.067-0.321c-0.321,0.104-0.667,0.284-0.745,0.565c-0.084,0.32-0.057,0.661,0.21,0.884
				c0.247,0.233,0.555,0.398,0.917,0.431c0.026,0.027,0.079-0.031,0.143,0.134c-0.013,0.124-0.072,0.127-0.079,0.146l-0.112,0.086
				c-0.071,0.053-0.137,0.112-0.203,0.171c-0.13,0.118-0.244,0.251-0.33,0.398c-0.36,0.592-0.027,1.411,0.467,1.864
				c0.532,0.482,1.388,0.428,1.926-0.061c0.582-0.433,1.055-1.005,1.441-1.619c0.197-0.308,0.35-0.635,0.521-0.964
				c0.085-0.157,0.168-0.325,0.188-0.483C98.313,51.775,98.153,51.731,97.975,51.635z"/>
		</g>
		<g>
			<path fill="#ED1C24" d="M40.823,35.877c-0.134,0.25-0.108,0.565-0.886,0.183c-0.361-0.177-1.137-0.441-2.048-1.186
				c-0.414-0.338-0.627-0.597-0.766-0.763c-0.638-0.759-0.45-1.8,0.42-2.325c0.87-0.524,1.506-0.327,2.144,0.433
				c0.089,0.106,0.104,0.048,0.109-0.086c0.015-0.458,0.412-1.214,0.956-1.252c0.48-0.032,0.747,0.025,1.067,0.672
				C42.211,32.348,41.644,34.348,40.823,35.877z"/>
			<path d="M40.89,35.913c-0.045,0.079-0.065,0.157-0.127,0.252c-0.055,0.1-0.196,0.154-0.297,0.142
				c-0.207-0.02-0.376-0.103-0.543-0.185c-0.325-0.156-0.668-0.303-0.99-0.482c-0.642-0.362-1.241-0.807-1.739-1.357
				c-0.553-0.506-0.71-1.457-0.221-2.084c0.228-0.316,0.553-0.532,0.906-0.678c0.348-0.153,0.787-0.171,1.142,0.011
				c0.177,0.085,0.334,0.201,0.474,0.331c0.069,0.065,0.138,0.131,0.2,0.202l0.09,0.099c0.013,0.028,0.038,0.001-0.042,0.002
				c-0.107,0.06-0.049,0.047-0.062,0.034c0.003-0.371,0.161-0.768,0.41-1.067c0.126-0.152,0.292-0.288,0.504-0.35
				c0.228-0.049,0.385-0.048,0.608-0.012c0.458,0.117,0.648,0.535,0.787,0.873c0.192,0.799-0.022,1.528-0.224,2.237
				C41.543,34.588,41.244,35.265,40.89,35.913z M40.755,35.842c0.33-0.647,0.607-1.326,0.804-2.023
				c0.183-0.683,0.363-1.445,0.194-2.083c-0.124-0.314-0.325-0.649-0.61-0.709c-0.325-0.065-0.662-0.016-0.869,0.264
				c-0.218,0.261-0.363,0.578-0.375,0.942c-0.023,0.028,0.035,0.075-0.121,0.151c-0.125,0-0.136-0.064-0.153-0.069l-0.093-0.106
				c-0.057-0.068-0.12-0.13-0.183-0.192c-0.126-0.123-0.266-0.229-0.418-0.305c-0.612-0.323-1.41,0.059-1.832,0.58
				c-0.449,0.561-0.343,1.412,0.178,1.918c0.468,0.554,1.068,0.992,1.705,1.34c0.319,0.177,0.655,0.31,0.994,0.461
				c0.162,0.075,0.334,0.148,0.494,0.158C40.636,36.188,40.669,36.026,40.755,35.842z"/>
		</g>
		
			<line fill="none" stroke="#000000" stroke-width="2.285" stroke-linecap="round" stroke-miterlimit="10" x1="165.208" y1="73.118" x2="141.905" y2="113.857"/>
		<g>
			<path fill="#ED1C24" d="M165.524,77.169c-1.455,0.467-2.533,1.781-4.112-2.604c-0.732-2.041-2.746-5.962-3.483-12.248
				c-0.334-2.854-0.191-4.656-0.109-5.815c0.371-5.322,4.995-8.643,10.322-7.418c5.324,1.227,7.046,4.372,6.672,9.695
				c-0.053,0.743,0.225,0.574,0.746,0.072c1.768-1.71,6.133-3.155,8.376-1.265c1.978,1.668,2.793,2.888,1.614,6.59
				C184.097,68.716,174.42,74.327,165.524,77.169z"/>
			<path d="M165.656,77.556c-0.441,0.127-0.857,0.375-1.433,0.506c-0.287,0.063-0.63,0.066-0.938-0.049
				c-0.31-0.117-0.551-0.313-0.744-0.516c-0.737-0.854-1.063-1.807-1.411-2.746c-0.672-1.824-1.452-3.672-2.023-5.568
				c-0.586-1.899-1.015-3.845-1.29-5.81c-0.276-1.959-0.447-3.956-0.343-5.947c0.037-0.974,0.107-2.008,0.403-2.993
				c0.286-0.979,0.74-1.918,1.363-2.737c1.239-1.645,3.127-2.79,5.162-3.145c2.056-0.383,4.134,0.007,6.037,0.746
				c0.954,0.384,1.882,0.916,2.654,1.652c0.777,0.73,1.37,1.664,1.737,2.656c0.372,0.993,0.545,2.034,0.605,3.057
				c0.029,0.513,0.038,1.024,0.024,1.533l-0.029,0.736l0.007,0.064c-0.022-0.01,0.049-0.041-0.181-0.254
				c-0.316-0.189-0.488-0.045-0.466-0.068c-0.015,0.007,0.018-0.01,0.044-0.033c0.242-0.217,0.735-0.701,1.166-0.971
				c0.446-0.299,0.905-0.557,1.385-0.773c0.959-0.434,1.975-0.733,3.046-0.844c1.057-0.102,2.217-0.02,3.265,0.542
				c0.259,0.132,0.511,0.316,0.728,0.495c0.185,0.153,0.395,0.333,0.583,0.507c0.386,0.355,0.769,0.751,1.088,1.236
				c0.68,0.974,0.813,2.27,0.655,3.313c-0.17,1.078-0.395,2.025-0.869,3.06c-1.013,1.953-2.593,3.31-4.174,4.547
				c-1.607,1.225-3.31,2.277-5.064,3.225c-3.51,1.893-7.2,3.418-10.998,4.58H165.656z M165.399,76.78
				c3.707-1.254,7.299-2.863,10.677-4.811c1.685-0.98,3.316-2.041,4.82-3.248c1.476-1.207,2.921-2.556,3.726-4.134
				c0.354-0.753,0.599-1.748,0.722-2.615c0.116-0.895,0.009-1.689-0.436-2.364c-0.22-0.344-0.52-0.67-0.854-0.986l-0.527-0.472
				c-0.165-0.134-0.309-0.246-0.491-0.342c-0.692-0.39-1.59-0.492-2.479-0.415c-0.895,0.082-1.799,0.33-2.638,0.701
				c-0.421,0.183-0.823,0.403-1.199,0.649c-0.404,0.259-0.611,0.482-1.11,0.909c-0.07,0.05-0.144,0.104-0.267,0.167
				c-0.062,0.029-0.143,0.064-0.274,0.085c-0.135,0.021-0.353,0.004-0.539-0.128c-0.332-0.289-0.286-0.455-0.33-0.582
				c-0.018-0.11-0.02-0.209-0.018-0.304l0.049-0.74c0.026-0.477,0.03-0.952,0.018-1.424c-0.031-0.942-0.165-1.874-0.467-2.735
				c-0.563-1.751-1.97-3.074-3.712-3.795c-1.732-0.727-3.675-1.146-5.528-0.842c-1.854,0.274-3.611,1.257-4.764,2.754
				c-0.585,0.742-1.014,1.6-1.295,2.506c-0.293,0.906-0.374,1.854-0.434,2.845c-0.246,3.896,0.431,7.834,1.59,11.56
				c0.569,1.885,1.381,3.65,2.12,5.51c0.348,0.893,0.732,1.83,1.321,2.463c0.306,0.305,0.597,0.418,0.983,0.314
				c0.387-0.094,0.836-0.35,1.337-0.518V76.78H165.399z"/>
		</g>
		<ellipse fill="#FFFFFF" cx="165.938" cy="57.189" rx="2.975" ry="1.501"/>
		<ellipse fill="#FFFFFF" cx="178.03" cy="63.501" rx="1.473" ry="0.742"/>
		<g>
			<path fill="#FFFFFF" d="M153.009,95.347c0.102,2.144-3.643,3.447-3.643,3.447s6.309-3.16,6.705,3.297
				c0.396,6.456-6.548,4.202-6.548,4.202s4.191,0.566,4.308,2.428c0.459,5.682-13.99,5.306-14.689-6.125
				C138.439,91.164,152.618,90.496,153.009,95.347z"/>
			<path d="M153.341,95.307l0.003,0.043c0.046,0.479-0.125,1.059-0.393,1.467c-0.264,0.43-0.615,0.775-0.971,1.093
				c-0.36,0.313-0.748,0.585-1.146,0.83c-0.4,0.256-0.792,0.479-1.251,0.688l0,0l-0.104,0.032c-0.354,0.101-0.723-0.103-0.823-0.456
				c-0.1-0.339,0.086-0.693,0.41-0.813c0.838-0.307,1.623-0.519,2.484-0.601c0.84-0.096,1.739-0.062,2.571,0.304
				c0.828,0.364,1.489,1.076,1.813,1.871c0.341,0.794,0.45,1.629,0.488,2.447c0.045,0.819-0.005,1.672-0.318,2.49
				c-0.3,0.818-0.954,1.53-1.743,1.934c-0.792,0.405-1.667,0.532-2.507,0.547c-0.856,0.022-1.656-0.07-2.532-0.253l0,0l-0.09-0.03
				c-0.344-0.132-0.518-0.513-0.39-0.859c0.119-0.318,0.457-0.494,0.779-0.417c1.067,0.257,2.063,0.562,3.051,1.082
				c0.474,0.271,0.979,0.587,1.33,1.145c0.174,0.267,0.271,0.648,0.26,0.941c0.016,0.24-0.02,0.594-0.079,0.858
				c-0.244,1.178-1.21,2.028-2.199,2.438c-1.006,0.425-2.082,0.56-3.133,0.526c-2.104-0.077-4.145-0.821-5.83-2.051
				c-1.69-1.227-2.938-3.028-3.549-5.011c-0.59-1.988-0.738-4.104-0.329-6.146c0.413-2.039,1.54-3.962,3.222-5.242
				c1.671-1.289,3.755-1.995,5.87-2.047c1.058-0.016,2.137,0.125,3.147,0.577c0.498,0.228,0.993,0.539,1.368,0.994
				C153.117,94.149,153.272,94.745,153.341,95.307z M152.673,95.358c-0.021-0.443-0.282-0.813-0.563-1.123
				c-0.296-0.315-0.659-0.598-1.08-0.794c-0.842-0.405-1.824-0.567-2.796-0.575c-1.952-0.003-3.934,0.61-5.521,1.772
				c-1.589,1.156-2.736,2.914-3.137,4.867c-0.415,1.943-0.306,4.024,0.298,5.921c0.604,1.9,1.808,3.6,3.426,4.754
				c1.604,1.175,3.59,1.805,5.557,1.818c0.979,0.003,1.966-0.159,2.827-0.558c0.856-0.39,1.552-1.087,1.701-1.951
				c0.039-0.231,0.052-0.39,0.027-0.658c-0.018-0.216-0.062-0.34-0.169-0.5c-0.213-0.302-0.599-0.561-1.019-0.743
				c-0.853-0.37-1.855-0.562-2.788-0.625l0.297-1.303l0,0c1.326,0.513,2.966,0.759,4.265,0.223c0.653-0.26,1.146-0.794,1.415-1.454
				c0.275-0.659,0.351-1.42,0.325-2.178c-0.04-0.761-0.176-1.519-0.478-2.177c-0.301-0.652-0.793-1.19-1.453-1.407
				c-1.309-0.455-2.92,0.024-4.141,0.733l-0.521-1.235l0,0c0.377-0.096,0.792-0.239,1.177-0.396c0.382-0.167,0.755-0.364,1.1-0.589
				c0.342-0.22,0.649-0.497,0.88-0.799C152.528,96.058,152.659,95.763,152.673,95.358z"/>
		</g>
		<g>
			<path fill="#FFFFFF" d="M152.353,83.518c-0.267,2.158,3.365,3.757,3.365,3.757s-6.046-3.669-6.944,2.825
				c-0.896,6.493,6.203,4.736,6.203,4.736s-4.224,0.261-4.485,2.132c-0.901,5.707,13.536,6.413,15.127-5.081
				C167.209,80.391,153.123,78.644,152.353,83.518z"/>
			<path d="M152.69,83.555c-0.019,0.408,0.088,0.715,0.297,1.053c0.205,0.323,0.484,0.624,0.813,0.876
				c0.324,0.254,0.677,0.481,1.052,0.68c0.372,0.19,0.777,0.368,1.142,0.492l-0.622,1.197l0,0c-1.162-0.803-2.739-1.41-4.083-1.041
				c-0.671,0.174-1.2,0.687-1.547,1.319c-0.346,0.639-0.539,1.391-0.64,2.147c-0.083,0.76-0.067,1.528,0.146,2.216
				c0.215,0.687,0.656,1.268,1.287,1.584c1.25,0.65,2.914,0.526,4.28,0.107h0.002l0.204,1.33c-0.943-0.003-1.965,0.117-2.842,0.43
				c-0.436,0.156-0.842,0.388-1.07,0.68c-0.115,0.156-0.172,0.275-0.204,0.496c-0.043,0.263-0.043,0.428-0.021,0.665
				c0.082,0.879,0.717,1.637,1.544,2.098c0.829,0.468,1.809,0.702,2.791,0.773c1.973,0.137,4.013-0.368,5.699-1.437
				c1.696-1.057,3.017-2.68,3.76-4.545c0.74-1.861,1.009-3.938,0.752-5.922c-0.241-1.992-1.233-3.855-2.728-5.153
				c-1.489-1.303-3.422-2.084-5.38-2.229c-0.977-0.067-1.975,0.022-2.846,0.371c-0.438,0.167-0.819,0.426-1.139,0.724
				C153.033,82.754,152.747,83.111,152.69,83.555z M152.022,83.451c0.112-0.558,0.304-1.143,0.714-1.575
				c0.406-0.43,0.924-0.709,1.438-0.903c1.049-0.387,2.147-0.445,3.207-0.349c2.117,0.213,4.152,1.099,5.715,2.534
				c1.576,1.432,2.534,3.461,2.777,5.534c0.245,2.08-0.065,4.188-0.801,6.141c-0.755,1.946-2.126,3.671-3.9,4.796
				c-1.772,1.118-3.873,1.733-5.992,1.653c-1.059-0.044-2.13-0.259-3.105-0.77c-0.962-0.489-1.854-1.43-2.005-2.626
				c-0.038-0.267-0.042-0.618-0.015-0.862c0.017-0.292,0.138-0.667,0.326-0.923c0.385-0.541,0.915-0.825,1.412-1.064
				c1.024-0.459,2.049-0.693,3.14-0.865c0.366-0.061,0.708,0.186,0.769,0.553c0.056,0.339-0.153,0.656-0.474,0.747l-0.092,0.023
				l-0.005,0.005c-0.884,0.115-1.7,0.15-2.557,0.061c-0.84-0.078-1.709-0.276-2.471-0.756c-0.76-0.474-1.344-1.25-1.574-2.095
				c-0.239-0.842-0.22-1.699-0.114-2.516c0.102-0.815,0.271-1.641,0.667-2.414c0.38-0.777,1.081-1.45,1.937-1.761
				c0.858-0.317,1.773-0.287,2.605-0.127c0.856,0.149,1.627,0.423,2.443,0.799l0,0l0.079,0.054c0.309,0.207,0.392,0.623,0.185,0.934
				c-0.195,0.292-0.582,0.379-0.886,0.211c-0.445-0.248-0.819-0.502-1.198-0.792c-0.379-0.279-0.745-0.584-1.082-0.93
				c-0.333-0.347-0.652-0.723-0.88-1.178c-0.233-0.429-0.353-1.026-0.271-1.499L152.022,83.451z"/>
		</g>
	</g>
</g>
<g opacity="0.3">
	<path d="M28.119,68.732c2.543,0.391,4.857,0.685,6.945,0.879c2.086,0.197,4.141,0.312,6.163,0.344
		c2.021,0.033,4.075-0.016,6.163-0.146c2.086-0.129,4.369-0.356,6.848-0.686c0,1.501-0.31,2.788-0.929,3.863
		c-0.621,1.076-1.452,1.957-2.495,2.643c-1.044,0.686-2.234,1.189-3.57,1.518c-1.337,0.326-2.69,0.488-4.06,0.488
		c-1.044,0-2.348-0.13-3.913-0.392c-1.565-0.261-2.903-0.554-4.011-0.882l-2.837,7.045c1.174-0.848,2.625-1.37,4.353-1.565
		c1.727-0.194,3.211-0.228,4.451-0.098c1.891,0.131,3.505,0.914,4.842,2.348c1.336,1.437,2.005,3.294,2.005,5.576
		c0,3.782-0.587,7.5-1.761,11.151c-1.174,3.652-2.837,6.931-4.989,9.83c-2.152,2.902-4.761,5.252-7.826,7.045
		c-3.066,1.793-6.457,2.688-10.174,2.688c-1.501,0-2.902-0.293-4.207-0.88c-1.305-0.587-2.43-1.451-3.375-2.593
		c-0.946-1.141-1.631-2.561-2.055-4.256c-0.425-1.694-0.474-3.65-0.146-5.868c1.434-1.437,2.901-2.446,4.402-3.033
		c1.5-0.587,2.999-1.042,4.5-1.369c-0.066,0.263-0.18,0.75-0.342,1.468c-0.164,0.719-0.327,1.532-0.489,2.445
		c-0.164,0.914-0.31,1.893-0.44,2.936c-0.132,1.045-0.196,2.021-0.196,2.936c0,1.109,0.276,2.104,0.832,2.982
		c0.553,0.881,1.287,1.322,2.201,1.322c1.825,0,3.505-0.932,5.038-2.789c1.532-1.858,2.852-4.108,3.962-6.75
		c1.108-2.643,1.957-5.396,2.543-8.268c0.587-2.868,0.88-5.348,0.88-7.436c0-0.912-0.164-1.774-0.489-2.592
		c-0.327-0.813-0.946-1.224-1.858-1.224c-1.044,0-2.039,0.327-2.984,0.978c-0.946,0.653-1.843,1.438-2.69,2.35
		c-0.848,0.912-1.614,1.857-2.299,2.837s-1.289,1.825-1.81,2.544l-5.576-2.35L28.119,68.732z"/>
	<path d="M92.388,68.146l-37.173,54.39l-4.011-2.935L87.79,65.896L92.388,68.146z M56.487,83.602
		c-0.457-1.369-0.604-2.818-0.44-4.354c0.162-1.531,0.587-3.048,1.272-4.549c0.685-1.499,1.597-2.901,2.739-4.206
		c1.141-1.304,2.461-2.412,3.962-3.326c1.5-0.912,2.999-1.499,4.5-1.761c1.5-0.26,2.886-0.245,4.158,0.049
		c1.271,0.294,2.38,0.881,3.326,1.761c0.945,0.88,1.646,2.005,2.104,3.375c0.456,1.369,0.587,2.821,0.391,4.354
		s-0.636,3.049-1.321,4.549c-0.685,1.501-1.599,2.902-2.739,4.206c-1.142,1.306-2.462,2.414-3.962,3.325
		c-1.501,0.914-2.983,1.502-4.451,1.762c-1.467,0.262-2.837,0.244-4.108-0.049c-1.271-0.295-2.381-0.881-3.326-1.762
		C57.644,86.096,56.942,84.971,56.487,83.602z M61.769,81.352c-0.652,2.088-0.652,3.457,0,4.108c0.651,0.653,1.761,0.358,3.326-0.88
		c0.783-0.587,1.565-1.354,2.348-2.299c0.783-0.945,1.532-1.973,2.25-3.082c0.717-1.107,1.353-2.25,1.908-3.424
		c0.553-1.174,0.994-2.282,1.321-3.326c0.651-2.152,0.651-3.537,0-4.157c-0.653-0.619-1.729-0.31-3.229,0.931
		c-0.783,0.586-1.565,1.354-2.348,2.299c-0.783,0.944-1.533,1.974-2.25,3.08c-0.718,1.11-1.37,2.25-1.957,3.424
		C62.551,79.2,62.095,80.311,61.769,81.352z M68.813,114.318c-0.457-1.37-0.604-2.82-0.44-4.354c0.162-1.53,0.587-3.048,1.271-4.549
		c0.685-1.499,1.597-2.901,2.739-4.206c1.14-1.305,2.46-2.412,3.962-3.326c1.499-0.847,2.999-1.418,4.5-1.712
		c1.5-0.294,2.886-0.276,4.158,0.05c1.271,0.326,2.38,0.913,3.326,1.76c0.945,0.851,1.646,1.957,2.104,3.326
		c0.456,1.369,0.587,2.838,0.391,4.402c-0.196,1.564-0.636,3.081-1.32,4.549c-0.685,1.467-1.599,2.87-2.739,4.206
		c-1.142,1.338-2.462,2.431-3.962,3.277c-1.501,0.914-2.983,1.501-4.451,1.761c-1.468,0.26-2.837,0.244-4.109-0.049
		c-1.271-0.294-2.381-0.881-3.326-1.762C69.97,116.813,69.268,115.688,68.813,114.318z M74.095,112.068
		c-0.653,2.088-0.653,3.457,0,4.106c0.651,0.652,1.761,0.359,3.326-0.881c0.783-0.587,1.565-1.354,2.348-2.299
		c0.783-0.944,1.532-1.974,2.25-3.081c0.717-1.107,1.353-2.25,1.908-3.424c0.553-1.176,0.994-2.282,1.321-3.326
		c0.651-2.086,0.651-3.456,0-4.107c-0.653-0.65-1.729-0.356-3.229,0.881c-0.782,0.588-1.565,1.354-2.348,2.299
		c-0.783,0.945-1.533,1.974-2.25,3.082c-0.718,1.107-1.37,2.25-1.957,3.424S74.42,111.025,74.095,112.068z"/>
</g>
<g>
	<path fill="#ED1C24" d="M25.162,66.591c2.543,0.391,4.857,0.685,6.945,0.88c2.086,0.196,4.141,0.31,6.163,0.341
		c2.021,0.032,4.075-0.017,6.163-0.146c2.086-0.13,4.369-0.358,6.848-0.685c0,1.5-0.31,2.789-0.929,3.864
		c-0.621,1.076-1.452,1.957-2.495,2.644c-1.044,0.685-2.234,1.188-3.57,1.517c-1.337,0.327-2.69,0.489-4.06,0.489
		c-1.044,0-2.348-0.13-3.913-0.393c-1.565-0.261-2.903-0.555-4.011-0.882l-2.837,7.046c1.174-0.849,2.625-1.371,4.353-1.565
		c1.727-0.195,3.211-0.228,4.451-0.099c1.891,0.131,3.505,0.914,4.842,2.349c1.336,1.436,2.005,3.294,2.005,5.575
		c0,3.783-0.587,7.5-1.761,11.15c-1.174,3.653-2.837,6.932-4.989,9.831c-2.152,2.903-4.761,5.251-7.826,7.044
		c-3.066,1.795-6.457,2.689-10.174,2.689c-1.501,0-2.902-0.293-4.207-0.881c-1.305-0.588-2.43-1.45-3.375-2.594
		c-0.946-1.14-1.631-2.559-2.055-4.254c-0.425-1.695-0.474-3.652-0.146-5.869c1.434-1.436,2.901-2.445,4.402-3.033
		c1.5-0.588,2.999-1.043,4.5-1.368c-0.066,0.262-0.18,0.75-0.342,1.467c-0.164,0.719-0.327,1.533-0.489,2.444
		c-0.164,0.914-0.31,1.894-0.44,2.937c-0.132,1.044-0.196,2.021-0.196,2.937c0,1.107,0.276,2.104,0.832,2.981
		c0.553,0.882,1.287,1.321,2.201,1.321c1.825,0,3.505-0.932,5.038-2.788c1.532-1.858,2.852-4.108,3.962-6.75
		c1.108-2.644,1.957-5.396,2.543-8.269c0.587-2.867,0.88-5.347,0.88-7.435c0-0.912-0.164-1.774-0.489-2.592
		c-0.327-0.813-0.946-1.224-1.858-1.224c-1.044,0-2.039,0.328-2.984,0.979c-0.946,0.652-1.843,1.436-2.69,2.348
		c-0.848,0.914-1.614,1.859-2.299,2.838c-0.685,0.979-1.289,1.826-1.81,2.543l-5.576-2.348L25.162,66.591z"/>
	<path fill="#ED1C24" d="M89.431,66.004l-37.173,54.391l-4.011-2.936l36.586-53.705L89.431,66.004z M53.53,81.46
		c-0.457-1.369-0.604-2.819-0.44-4.354c0.162-1.529,0.587-3.047,1.272-4.549c0.685-1.498,1.597-2.899,2.739-4.205
		c1.141-1.305,2.461-2.413,3.962-3.327c1.5-0.912,2.999-1.499,4.5-1.761c1.5-0.26,2.886-0.245,4.158,0.049
		c1.271,0.294,2.38,0.881,3.326,1.761c0.945,0.88,1.646,2.005,2.104,3.375c0.456,1.369,0.587,2.82,0.391,4.354
		c-0.196,1.534-0.636,3.049-1.321,4.549c-0.685,1.502-1.599,2.902-2.739,4.207c-1.142,1.307-2.462,2.414-3.962,3.325
		c-1.501,0.914-2.983,1.501-4.451,1.761c-1.467,0.264-2.837,0.244-4.108-0.049c-1.271-0.294-2.381-0.881-3.326-1.761
		C54.687,83.954,53.985,82.829,53.53,81.46z M58.812,79.21c-0.652,2.088-0.652,3.457,0,4.108c0.651,0.652,1.761,0.357,3.326-0.881
		c0.783-0.586,1.565-1.354,2.348-2.299c0.783-0.945,1.532-1.973,2.25-3.082c0.717-1.106,1.353-2.25,1.908-3.425
		c0.553-1.174,0.994-2.28,1.321-3.325c0.651-2.151,0.651-3.538,0-4.158c-0.653-0.619-1.729-0.309-3.229,0.93
		c-0.783,0.587-1.565,1.354-2.348,2.299c-0.783,0.945-1.533,1.974-2.25,3.081c-0.718,1.109-1.37,2.25-1.957,3.424
		C59.594,77.059,59.138,78.168,58.812,79.21z M65.855,112.177c-0.457-1.37-0.604-2.819-0.44-4.354
		c0.162-1.531,0.587-3.048,1.271-4.55c0.685-1.498,1.597-2.9,2.739-4.205c1.14-1.305,2.46-2.412,3.962-3.326
		c1.499-0.848,2.999-1.418,4.5-1.713c1.5-0.293,2.886-0.275,4.158,0.05c1.271,0.327,2.38,0.914,3.326,1.761
		c0.945,0.85,1.646,1.957,2.104,3.326c0.456,1.369,0.587,2.837,0.391,4.402c-0.196,1.563-0.636,3.08-1.32,4.549
		c-0.685,1.467-1.599,2.869-2.739,4.206c-1.142,1.338-2.462,2.431-3.962,3.276c-1.501,0.914-2.983,1.502-4.451,1.762
		c-1.468,0.26-2.837,0.244-4.109-0.049c-1.271-0.295-2.381-0.881-3.326-1.763C67.013,114.671,66.311,113.546,65.855,112.177z
		 M71.138,109.927c-0.653,2.089-0.653,3.457,0,4.108c0.651,0.652,1.761,0.359,3.326-0.881c0.783-0.588,1.565-1.354,2.348-2.299
		s1.532-1.974,2.25-3.082c0.717-1.107,1.353-2.25,1.908-3.424c0.553-1.175,0.994-2.281,1.321-3.326c0.651-2.086,0.651-3.455,0-4.107
		c-0.653-0.65-1.729-0.357-3.229,0.881c-0.782,0.587-1.565,1.354-2.348,2.299c-0.783,0.945-1.533,1.973-2.25,3.081
		c-0.718,1.109-1.37,2.25-1.957,3.425C71.92,107.775,71.463,108.884,71.138,109.927z"/>
</g>
</svg>
