<?xml version="1.0" standalone="no"?>
<!DOCTYPE svg PUBLIC "-//W3C//DTD SVG 20010904//EN"
 "http://www.w3.org/TR/2001/REC-SVG-20010904/DTD/svg10.dtd">
<svg version="1.0" xmlns="http://www.w3.org/2000/svg"
 width="700.000000pt" height="700.000000pt" viewBox="0 0 700.000000 700.000000"
 preserveAspectRatio="xMidYMid meet">
<metadata>
Created by potrace 1.11, written by Peter Selinger 2001-2013
</metadata>
<g transform="translate(0.000000,700.000000) scale(0.100000,-0.100000)"
fill="#000000" stroke="none">
<path d="M2828 6375 c-2 -1 -41 -6 -88 -9 -95 -7 -121 -11 -230 -32 -41 -9
-84 -17 -95 -18 -36 -6 -148 -36 -215 -59 -36 -11 -67 -22 -70 -22 -3 0 -39
-14 -80 -29 -689 -265 -1245 -822 -1513 -1516 -50 -131 -110 -328 -123 -410
-3 -14 -9 -47 -14 -75 -48 -258 -54 -570 -15 -845 2 -14 7 -45 10 -70 11 -74
43 -230 65 -315 176 -662 540 -1223 1080 -1661 144 -118 432 -302 570 -366
414 -192 730 -280 1130 -315 105 -9 431 -9 525 0 39 4 97 9 130 12 33 3 83 10
110 15 28 5 67 12 88 15 46 6 178 33 227 45 19 5 46 11 60 14 45 9 202 56 310
93 412 142 763 333 1145 624 287 218 718 692 816 898 80 166 32 366 -118 487
-158 128 -401 120 -546 -19 -24 -23 -70 -78 -103 -122 -340 -461 -776 -806
-1294 -1023 -149 -62 -388 -138 -490 -156 -14 -2 -43 -9 -65 -14 -22 -6 -65
-14 -95 -17 -30 -4 -57 -8 -60 -10 -3 -2 -41 -6 -85 -10 -44 -4 -84 -9 -88
-12 -11 -6 -364 -6 -402 0 -16 3 -55 8 -85 12 -111 13 -236 38 -320 63 -30 9
-57 16 -60 17 -11 2 -86 27 -105 35 -11 4 -47 18 -80 31 -83 31 -254 117 -350
175 -283 173 -539 421 -724 703 -203 309 -325 647 -369 1016 -14 120 -7 434
12 535 99 529 373 948 811 1235 121 80 394 200 497 219 12 2 50 11 83 19 33 9
85 18 116 22 31 3 67 8 80 10 28 6 233 7 269 1 14 -2 48 -7 75 -11 157 -23
334 -90 494 -186 104 -62 272 -218 350 -323 131 -177 232 -418 259 -616 9 -71
8 -302 -2 -360 -11 -68 -61 -211 -100 -287 -137 -274 -430 -488 -721 -528 -37
-5 -70 -10 -135 -21 -50 -9 -153 -67 -199 -113 -82 -82 -122 -185 -117 -305 3
-68 9 -94 35 -149 84 -176 260 -264 472 -236 109 15 131 19 219 40 248 60 453
158 670 320 268 201 488 492 607 804 33 86 69 202 79 255 3 14 12 63 21 110
25 130 24 470 -2 615 -72 399 -214 719 -454 1017 -68 85 -203 224 -276 283
-27 22 -62 51 -79 65 -171 142 -456 291 -696 364 -141 42 -259 66 -410 82 -51
6 -337 13 -342 9z"/>
</g>
</svg>
