<?xml version="1.0" encoding="utf-8"?>
<!-- Generator: Adobe Illustrator 16.0.0, SVG Export Plug-In . SVG Version: 6.00 Build 0)  -->
<!DOCTYPE svg PUBLIC "-//W3C//DTD SVG 1.1//EN" "http://www.w3.org/Graphics/SVG/1.1/DTD/svg11.dtd">
<svg version="1.1" id="Слой_1" xmlns="http://www.w3.org/2000/svg" xmlns:xlink="http://www.w3.org/1999/xlink" x="0px" y="0px"
	 width="100px" height="80px" viewBox="0 0 100 80" enable-background="new 0 0 100 80" xml:space="preserve">
<path fill="none" stroke="#231F20" stroke-width="5.0141" stroke-linecap="round" stroke-miterlimit="10" d="M70.547,30.861
	c7.435-3.879,10.088-12.663,5.917-19.619C73.13,5.681,65.605,3.689,59.657,6.79c-4.768,2.485-6.456,8.106-3.788,12.558
	c2.133,3.557,6.949,4.835,10.754,2.845"/>
<path fill="#231F20" d="M55.014,72.472c0,2.846-11.636,5.147-25.983,5.147c-14.346,0-25.983-2.302-25.983-5.147
	c0-2.847,11.637-5.151,25.983-5.151C43.378,67.32,55.014,69.625,55.014,72.472z"/>
<path fill="#FFFFFF" stroke="#231F20" stroke-width="1.8079" stroke-miterlimit="10" d="M59.388,38.919
	c0.516,8.682-0.013,24.824-1.278,27.585c-2.305,5.024-3.717-8.357-4.681-15.859"/>
<path fill="#FFFFFF" stroke="#231F20" stroke-width="1.8079" stroke-miterlimit="10" d="M61.138,28.979
	C41.193,32.005,24.69,59.013,17.789,72.472c1.384,4.009,16.322,3.313,19.357,2.681C57.613,43.495,68.316,43.647,68.32,50.858
	c0.005,7.554-1.303,24.728,1.622,19.993c1.607-2.602,5.194-22.295,5.786-30.973C76.21,32.754,73.118,27.164,61.138,28.979z"/>
<path fill="#231F20" d="M93.864,53.782c0.088,0.406-0.602,0.874-1.538,1.054c-0.937,0.179-1.771-0.005-1.855-0.411
	c-0.087-0.402,0.604-0.873,1.54-1.054C92.946,53.193,93.775,53.379,93.864,53.782z"/>
<path fill="#231F20" d="M97.376,48.716c0.09,0.402-0.599,0.874-1.536,1.053c-0.937,0.179-1.767-0.005-1.854-0.409
	c-0.088-0.406,0.602-0.877,1.539-1.056C96.459,48.126,97.29,48.311,97.376,48.716z"/>
<path fill="#231F20" d="M83.542,51.546c0.108,0.497-0.735,1.077-1.889,1.296c-1.153,0.221-2.181-0.007-2.286-0.504
	c-0.108-0.495,0.743-1.079,1.895-1.298C82.417,50.82,83.434,51.046,83.542,51.546z"/>
<path fill="#231F20" d="M88.494,53.941c0.109,0.495-0.739,1.079-1.891,1.296c-1.153,0.219-2.178-0.005-2.284-0.505
	c-0.11-0.495,0.74-1.079,1.894-1.298C87.365,53.215,88.387,53.443,88.494,53.941z"/>
<path fill="#231F20" d="M60.877,34.214c0.453,0.947-1.355,2.629-4.041,3.755c-2.682,1.125-5.232,1.271-5.685,0.325
	c-0.455-0.948,1.365-2.633,4.049-3.759C57.883,33.409,60.423,33.268,60.877,34.214z"/>
<path fill="#231F20" d="M48.656,43.699c0.333,0.691-0.993,1.921-2.957,2.746c-1.963,0.825-3.831,0.932-4.16,0.237
	c-0.333-0.689,0.997-1.923,2.961-2.752C46.463,43.109,48.327,43.004,48.656,43.699z"/>
<path fill="#231F20" d="M90.358,57.748c0.052,0.231-0.347,0.501-0.882,0.604c-0.539,0.104-1.017-0.001-1.063-0.236
	c-0.051-0.229,0.345-0.5,0.878-0.604C89.831,57.41,90.308,57.516,90.358,57.748z"/>
<path fill="#231F20" d="M79.669,60.691c0.056,0.253-0.376,0.547-0.959,0.658c-0.585,0.111-1.104-0.002-1.159-0.255
	c-0.056-0.253,0.374-0.549,0.961-0.657C79.097,60.324,79.613,60.439,79.669,60.691z"/>
</svg>
