<?xml version="1.0" encoding="utf-8"?>
<!-- Generator: Adobe Illustrator 16.0.0, SVG Export Plug-In . SVG Version: 6.00 Build 0)  -->
<!DOCTYPE svg PUBLIC "-//W3C//DTD SVG 1.1//EN" "http://www.w3.org/Graphics/SVG/1.1/DTD/svg11.dtd">
<svg version="1.1" id="Слой_1" xmlns="http://www.w3.org/2000/svg" xmlns:xlink="http://www.w3.org/1999/xlink" x="0px" y="0px"
	 width="120px" height="40px" viewBox="0 0 120 40" enable-background="new 0 0 120 40" xml:space="preserve">
<g>
	<g>
		<path fill="#FAAC18" d="M61.663,11H46.4c-1.521,0-2.755,0.979-2.755,2.5c0,1.522,1.234,2.5,2.755,2.5H52v18.171
			c0,1.522,0.479,2.756,2,2.756c1.522,0,2-1.233,2-2.756V16h5.663c1.521,0,2.754-0.978,2.754-2.5C64.417,11.979,63.184,11,61.663,11
			z"/>
		<path fill="#FAAC18" d="M114.034,24.254c0-0.113-0.034-0.221-0.034-0.331v-9.665c0-1.521-0.979-2.754-2.498-2.754
			c-1.523,0-2.502,1.233-2.502,2.754V22H98v-7.742c0-1.521-1.979-2.754-3.498-2.754c-1.523,0-3.502,1.233-3.502,2.754v19.994
			c0,1.521,1.979,2.755,3.502,2.755c1.52,0,3.498-1.234,3.498-2.755V28h11v6.252c0,1.521,0.979,2.755,2.502,2.755
			c1.52,0,2.498-1.234,2.498-2.755v-9.667C114,24.476,114.034,24.367,114.034,24.254z"/>
		<path fill="#FAAC18" d="M87.484,27.816c-1.211-0.912-2.939-0.673-3.856,0.545c-1.407,1.865-3.545,2.937-5.87,2.937
			c-4.057,0-7.357-3.325-7.357-7.414c0-4.086,3.301-7.411,7.357-7.411c2.322,0,4.46,1.069,5.865,2.933
			c0.917,1.215,2.645,1.458,3.859,0.541c1.215-0.916,1.456-2.644,0.541-3.858c-2.458-3.256-6.199-5.125-10.266-5.125
			c-7.095,0-12.866,5.796-12.866,12.92c0,7.126,5.771,12.926,12.866,12.926c4.068,0,7.813-1.873,10.272-5.134
			C88.943,30.461,88.703,28.733,87.484,27.816z"/>
	</g>
	<path fill="#FFFFFF" d="M24.11,36.899c-4.3,0-8.419-1.509-11.743-4.33c-3.79-3.216-6.089-7.74-6.476-12.738
		C5.229,11.389,11.474,3.933,19.814,3.209c3.34-0.287,6.595,0.753,9.163,2.929c2.605,2.21,4.188,5.317,4.456,8.75
		c0.461,5.888-3.895,11.083-9.707,11.58c-1.332,0.108-2.511-0.877-2.625-2.214c-0.113-1.336,0.876-2.509,2.212-2.623
		c3.165-0.27,5.534-3.126,5.281-6.365c-0.167-2.132-1.146-4.06-2.758-5.426c-1.568-1.332-3.557-1.965-5.604-1.794
		c-5.694,0.493-9.956,5.61-9.501,11.408c0.287,3.7,1.983,7.043,4.779,9.415c2.736,2.325,6.211,3.429,9.771,3.127
		c5.213-0.454,9.935-3.224,12.955-7.596c0.762-1.103,2.272-1.379,3.377-0.618c1.102,0.761,1.379,2.271,0.618,3.376
		c-3.844,5.567-9.871,9.093-16.531,9.672C25.167,36.878,24.636,36.899,24.11,36.899z"/>
</g>
</svg>
