<?xml version="1.0" encoding="utf-8"?>
<!-- Generator: Adobe Illustrator 16.0.0, SVG Export Plug-In . SVG Version: 6.00 Build 0)  -->
<!DOCTYPE svg PUBLIC "-//W3C//DTD SVG 1.1//EN" "http://www.w3.org/Graphics/SVG/1.1/DTD/svg11.dtd">
<svg version="1.1" id="Слой_1" xmlns="http://www.w3.org/2000/svg" xmlns:xlink="http://www.w3.org/1999/xlink" x="0px" y="0px"
	 width="120px" height="40px" viewBox="0 0 120 40" enable-background="new 0 0 120 40" xml:space="preserve">
<g>
	<path fill="#060084" d="M61.453,10.384H45.615c-1.578,0-2.858,1.279-2.858,2.857s1.28,2.857,2.858,2.857h5.013v18.4
		c0,1.58,1.28,2.859,2.859,2.859c1.578,0,2.858-1.279,2.858-2.859v-18.4h5.107c1.578,0,2.858-1.279,2.858-2.857
		S63.031,10.384,61.453,10.384z"/>
	<path fill="#060084" d="M116.467,24.208c0-0.113-0.021-0.221-0.033-0.331V13.836c0-1.579-1.28-2.857-2.859-2.857
		c-1.578,0-2.858,1.279-2.858,2.857v7.514H99.214v-7.514c0-1.579-1.28-2.857-2.858-2.857c-1.579,0-2.858,1.279-2.858,2.857v20.746
		c0,1.579,1.279,2.859,2.858,2.859c1.578,0,2.858-1.28,2.858-2.859v-7.516h11.502v7.516c0,1.579,1.28,2.859,2.858,2.859
		c1.579,0,2.859-1.28,2.859-2.859V24.539C116.445,24.429,116.467,24.321,116.467,24.208z"/>
	<path fill="#060084" d="M88.248,27.906c-1.259-0.949-3.052-0.696-4.004,0.563c-1.459,1.938-3.679,3.048-6.09,3.048
		c-4.211,0-7.635-3.45-7.635-7.692c0-4.239,3.424-7.69,7.635-7.69c2.409,0,4.628,1.109,6.087,3.043
		c0.95,1.261,2.742,1.513,4.002,0.563c1.261-0.951,1.512-2.744,0.562-4.004c-2.55-3.378-6.431-5.316-10.65-5.316
		c-7.362,0-13.353,6.015-13.353,13.405c0,7.395,5.99,13.409,13.353,13.409c4.222,0,8.105-1.94,10.656-5.324
		C89.76,30.648,89.509,28.856,88.248,27.906z"/>
</g>
<path fill="#FFFFFF" d="M22.486,37.329c-4.461,0-8.735-1.565-12.183-4.491c-3.931-3.338-6.318-8.032-6.72-13.22
	C2.896,10.859,9.376,3.122,18.03,2.373c3.464-0.298,6.844,0.781,9.507,3.038c2.704,2.293,4.346,5.518,4.624,9.079
	c0.478,6.111-4.041,11.501-10.073,12.014c-1.377,0.119-2.605-0.909-2.724-2.294c-0.118-1.386,0.91-2.606,2.295-2.723
	c3.284-0.281,5.742-3.244,5.479-6.604c-0.173-2.214-1.188-4.213-2.861-5.631c-1.629-1.382-3.688-2.043-5.815-1.862
	c-5.908,0.511-10.331,5.821-9.859,11.836c0.297,3.841,2.059,7.31,4.958,9.771c2.837,2.409,6.444,3.558,10.137,3.243
	c5.411-0.471,10.311-3.345,13.444-7.882c0.79-1.143,2.356-1.432,3.504-0.642c1.144,0.791,1.431,2.358,0.641,3.504
	c-3.99,5.776-10.243,9.436-17.155,10.037C23.583,37.305,23.033,37.329,22.486,37.329z"/>
</svg>
