<?xml version="1.0" encoding="utf-8"?>
<!-- Generator: Adobe Illustrator 16.0.0, SVG Export Plug-In . SVG Version: 6.00 Build 0)  -->
<!DOCTYPE svg PUBLIC "-//W3C//DTD SVG 1.1//EN" "http://www.w3.org/Graphics/SVG/1.1/DTD/svg11.dtd">
<svg version="1.1" id="Capa_1" xmlns="http://www.w3.org/2000/svg" xmlns:xlink="http://www.w3.org/1999/xlink" x="0px" y="0px"
	 width="32px" height="19px" viewBox="32.875 39.375 32 19" enable-background="new 32.875 39.375 32 19" xml:space="preserve">
<path d="M64.142,40.662c0.223-0.742,0-1.287-1.06-1.287h-3.501c-0.89,0-1.301,0.471-1.522,0.99c0,0-1.781,4.338-4.303,7.156
	c-0.815,0.815-1.187,1.075-1.631,1.075c-0.223,0-0.557-0.26-0.557-1.001v-6.934c0-0.891-0.246-1.287-0.988-1.287h-5.502
	c-0.556,0-0.891,0.413-0.891,0.805c0,0.844,1.261,1.038,1.391,3.411v5.154c0,1.13-0.204,1.335-0.649,1.335
	c-1.187,0-4.074-4.357-5.786-9.344c-0.335-0.97-0.672-1.361-1.567-1.361h-3.5c-1,0-1.201,0.471-1.201,0.99
	c0,0.926,1.188,5.524,5.527,11.605c2.893,4.153,6.968,6.404,10.677,6.404c2.226,0,2.501-0.501,2.501-1.362v-3.138
	c0-1.001,0.211-1.199,0.916-1.199c0.519,0,1.408,0.259,3.484,2.262c2.374,2.372,2.766,3.438,4.102,3.438h3.5
	c1.001,0,1.501-0.501,1.212-1.487c-0.314-0.983-1.449-2.409-2.952-4.102c-0.816-0.964-2.039-2.001-2.411-2.521
	c-0.519-0.669-0.371-0.966,0-1.558C59.431,48.708,63.695,42.701,64.142,40.662z"/>
</svg>
