<?xml version="1.0" encoding="utf-8"?>
<!-- Generator: Adobe Illustrator 16.0.0, SVG Export Plug-In . SVG Version: 6.00 Build 0)  -->
<!DOCTYPE svg PUBLIC "-//W3C//DTD SVG 1.1//EN" "http://www.w3.org/Graphics/SVG/1.1/DTD/svg11.dtd">
<svg version="1.1" id="Слой_1" xmlns="http://www.w3.org/2000/svg" xmlns:xlink="http://www.w3.org/1999/xlink" x="0px" y="0px"
	 width="32px" height="32px" viewBox="-4 -4 32 32" enable-background="new -4 -4 32 32" xml:space="preserve">
<path fill="#060084" d="M26.313,4.224c0.21-0.704,0-1.22-0.993-1.22h-3.283c-0.833,0-1.22,0.448-1.426,0.938
	c0,0-1.672,4.107-4.034,6.778c-0.762,0.771-1.112,1.017-1.529,1.017c-0.207,0-0.52-0.246-0.52-0.946V4.224
	c0-0.846-0.231-1.22-0.926-1.22H8.442c-0.521,0-0.834,0.391-0.834,0.762c0,0.801,1.182,0.981,1.304,3.23v4.881
	c0,1.072-0.191,1.263-0.607,1.263c-1.113,0-3.818-4.125-5.423-8.851C2.568,3.373,2.251,3,1.412,3h-3.285C-2.81,3-3,3.447-3,3.938
	c0,0.877,1.115,5.232,5.182,10.992c2.712,3.934,6.533,6.066,10.009,6.066c2.086,0,2.344-0.477,2.344-1.292v-2.969
	c0-0.949,0.2-1.135,0.859-1.135c0.488,0,1.322,0.244,3.268,2.14C20.889,19.991,21.254,21,22.507,21h3.282
	c0.937,0,1.406-0.476,1.134-1.412c-0.291-0.928-1.356-2.278-2.766-3.881c-0.765-0.915-1.915-1.898-2.261-2.39
	c-0.488-0.63-0.347-0.916,0-1.475C21.896,11.843,25.895,6.154,26.313,4.224z"/>
</svg>
