<?xml version="1.0" encoding="utf-8"?>
<!-- Generator: Adobe Illustrator 16.0.0, SVG Export Plug-In . SVG Version: 6.00 Build 0)  -->
<!DOCTYPE svg PUBLIC "-//W3C//DTD SVG 1.1//EN" "http://www.w3.org/Graphics/SVG/1.1/DTD/svg11.dtd">
<svg version="1.1" id="Слой_1" xmlns="http://www.w3.org/2000/svg" xmlns:xlink="http://www.w3.org/1999/xlink" x="0px" y="0px"
	 width="32px" height="32px" viewBox="0 0 32 32" enable-background="new 0 0 32 32" xml:space="preserve">
<g id="Lozenge">
	<g>
		<path fill="#E52D27" d="M30.945,9.9c0,0-0.299-2.102-1.213-3.028c-1.158-1.215-2.46-1.221-3.054-1.292
			c-4.271-0.308-10.673-0.308-10.673-0.308h-0.012c0,0-6.401,0-10.672,0.308C4.728,5.651,3.426,5.657,2.268,6.873
			C1.354,7.798,1.056,9.9,1.056,9.9s-0.305,2.467-0.305,4.937v2.314c0,2.469,0.305,4.936,0.305,4.936s0.298,2.103,1.212,3.027
			c1.161,1.216,2.685,1.177,3.362,1.305c2.439,0.233,10.371,0.309,10.371,0.309s6.407-0.009,10.678-0.319
			c0.597-0.071,1.896-0.078,3.054-1.294c0.914-0.925,1.213-3.027,1.213-3.027s0.304-2.47,0.304-4.936v-2.314
			C31.249,12.367,30.945,9.9,30.945,9.9z"/>
	</g>
</g>
<path id="Triangle" fill="#FFFFFF" d="M12.851,19.955l8.24-4.271l-8.24-4.3V19.955z"/>
<polygon fill="#FFFFFF" points="12.851,19.955 12.851,11.385 21.091,15.685 "/>
<path id="The_Sharpness" fill="#E3DCDC" enable-background="new    " d="M12.851,11.385l7.226,4.825l1.015-0.525L12.851,11.385z"/>
</svg>
