<?xml version="1.0" encoding="utf-8"?>
<!-- Generator: Adobe Illustrator 16.0.0, SVG Export Plug-In . SVG Version: 6.00 Build 0)  -->
<!DOCTYPE svg PUBLIC "-//W3C//DTD SVG 1.1//EN" "http://www.w3.org/Graphics/SVG/1.1/DTD/svg11.dtd">
<svg version="1.1" id="Слой_1" xmlns="http://www.w3.org/2000/svg" xmlns:xlink="http://www.w3.org/1999/xlink" x="0px" y="0px"
	 width="16px" height="16px" viewBox="27 27 16 16" enable-background="new 27 27 16 16" xml:space="preserve">
<path fill="#060084" d="M40.259,26.998H29.741c-1.516,0-2.744,1.228-2.744,2.744v10.517c0,1.516,1.228,2.743,2.744,2.743h10.518
	c1.515,0,2.743-1.228,2.743-2.743V29.742C43.002,28.226,41.773,26.998,40.259,26.998z M42.133,37.775
	c-1.513,2.177-3.885,3.555-6.505,3.781c-0.21,0.014-0.418,0.023-0.625,0.023c-1.677,0-3.287-0.581-4.588-1.664
	c-1.51-1.256-2.427-3.03-2.58-4.993c-0.258-3.292,2.196-6.202,5.476-6.484c1.308-0.113,2.582,0.288,3.587,1.125
	c1.038,0.862,1.669,2.079,1.772,3.429c0.182,2.294-1.53,4.317-3.818,4.512c-0.528,0.043-0.996-0.339-1.041-0.856
	c-0.045-0.519,0.345-0.975,0.875-1.02c1.243-0.105,2.17-1.219,2.071-2.488c-0.067-0.844-0.458-1.603-1.101-2.14
	c-0.614-0.508-1.387-0.753-2.178-0.685c-2.236,0.192-3.909,2.194-3.73,4.463c0.114,1.457,0.791,2.775,1.907,3.702
	c1.069,0.891,2.419,1.31,3.804,1.198c2.044-0.178,3.897-1.259,5.085-2.966c0.299-0.431,0.896-0.539,1.335-0.245
	C42.317,36.761,42.431,37.345,42.133,37.775z"/>
<g>
	<path fill="#FFAF00" d="M35.003,41.58c-1.677,0-3.287-0.581-4.588-1.664c-1.51-1.256-2.427-3.03-2.58-4.993
		c-0.258-3.292,2.196-6.202,5.476-6.484c1.308-0.113,2.582,0.288,3.587,1.125c1.038,0.862,1.669,2.079,1.772,3.429
		c0.182,2.294-1.53,4.317-3.818,4.512c-0.528,0.043-0.996-0.339-1.041-0.856c-0.045-0.519,0.345-0.975,0.875-1.02
		c1.243-0.105,2.17-1.219,2.071-2.488c-0.067-0.844-0.458-1.603-1.101-2.14c-0.614-0.508-1.387-0.753-2.178-0.685
		c-2.236,0.192-3.909,2.194-3.73,4.463c0.114,1.457,0.791,2.775,1.907,3.702c1.069,0.891,2.419,1.31,3.804,1.198
		c2.044-0.178,3.897-1.259,5.085-2.966c0.299-0.431,0.896-0.539,1.335-0.245c0.438,0.292,0.551,0.876,0.253,1.307
		c-1.513,2.177-3.885,3.555-6.505,3.781C35.417,41.57,35.21,41.58,35.003,41.58z"/>
</g>
</svg>
