<?xml version="1.0" encoding="utf-8"?>
<!-- Generator: Adobe Illustrator 16.0.0, SVG Export Plug-In . SVG Version: 6.00 Build 0)  -->
<!DOCTYPE svg PUBLIC "-//W3C//DTD SVG 1.1//EN" "http://www.w3.org/Graphics/SVG/1.1/DTD/svg11.dtd">
<svg version="1.1" id="Слой_1" xmlns="http://www.w3.org/2000/svg" xmlns:xlink="http://www.w3.org/1999/xlink" x="0px" y="0px"
	 width="96px" height="96px" viewBox="0 0 96 96" enable-background="new 0 0 96 96" xml:space="preserve">
<g>
	<path fill="#ED1C24" d="M45.012,10.172H8.058l7.877,28.797c0.329-0.233,0.717-0.404,1.155-0.404h38.474L45.012,10.172z"/>
	<polygon fill="#ED1C24" points="49.397,42.62 50.479,49.044 54.864,42.62 	"/>
	<path fill="#ED1C24" d="M74.505,36.988c-0.576-0.554-0.775-1.388-0.516-2.138l5.082-14.542H53.11l7.27,19.577
		c0.133,0.337,0.154,0.7,0.092,1.046c0,0.396-0.076,0.792-0.318,1.146l-5.941,8.665h34.707L74.505,36.988z"/>
</g>
<path fill="#808080" d="M95.368,51.246L78.245,34.909l5.588-16.002c0.217-0.623,0.121-1.309-0.264-1.847
	c-0.379-0.531-1.002-0.85-1.654-0.85H51.589l-3.268-8.813c-0.3-0.798-1.059-1.326-1.909-1.326H6.941H6.934L6.208,3.405
	C5.75,1.797,3.856,1.502,2.332,1.988c-1.521,0.489-2.083,2.49-1.629,4.103l24.641,89.212h3.623L3.917,5.437
	C3.813,5.06,4.029,4.666,4.409,4.563c0.367-0.133,0.767,0.111,0.876,0.49l25.156,90.25h0.909L16.912,42.541
	c0.058,0,0.108,0.034,0.158,0.034h28.084l3.255,10.727c0.037,0.131,0.113,0.238,0.171,0.354c0.033,0.06,0.051,0.125,0.096,0.19
	c0.131,0.201,0.305,0.367,0.505,0.523c0.012,0,0.018,0.02,0.025,0.02c0.09,0.063,0.189,0.097,0.287,0.138
	c0.084,0.041,0.156,0.084,0.236,0.117c0.209,0.063,0.416,0.108,0.621,0.108H93.97c0.832,0,1.582-0.514,1.893-1.281
	C96.157,52.699,95.972,51.818,95.368,51.246z M17.069,38.519c-0.433,0-0.817,0.171-1.146,0.404L8.049,10.126h36.954l10.544,28.393
	H17.069z M49.388,42.574h5.465l-3.789,5.518L49.388,42.574z M54.2,50.689l5.939-8.657c0.238-0.354,0.314-0.75,0.314-1.146
	c0.064-0.346,0.045-0.709-0.084-1.046l-7.277-19.578h25.971l-5.08,14.543c-0.268,0.75-0.063,1.584,0.512,2.138l14.41,13.747H54.2z"
	/>
<polygon fill="#AB141A" points="21.552,10.172 50.406,38.565 55.457,38.565 44.906,10.172 "/>
<path fill="#AB141A" d="M60.047,42.077l-5.941,8.665H83.97L53.075,20.308h-0.071l7.27,19.577c0.133,0.337,0.154,0.7,0.092,1.046
	C60.365,41.327,60.289,41.723,60.047,42.077z"/>
</svg>
