<?xml version="1.0" encoding="utf-8"?>
<!-- Generator: Adobe Illustrator 16.0.0, SVG Export Plug-In . SVG Version: 6.00 Build 0)  -->
<!DOCTYPE svg PUBLIC "-//W3C//DTD SVG 1.1//EN" "http://www.w3.org/Graphics/SVG/1.1/DTD/svg11.dtd">
<svg version="1.1" id="Слой_1" xmlns="http://www.w3.org/2000/svg" xmlns:xlink="http://www.w3.org/1999/xlink" x="0px" y="0px"
	 width="24px" height="24px" viewBox="0 0 24 24" enable-background="new 0 0 24 24" xml:space="preserve">
<g>
	<path fill="#ED1C24" d="M11.529,3.136H2.871l1.845,6.747c0.078-0.055,0.168-0.095,0.271-0.095h9.015L11.529,3.136z"/>
	<polygon fill="#ED1C24" points="12.557,10.738 12.95,12.031 13.838,10.738 	"/>
	<path fill="#ED1C24" d="M18.439,9.419c-0.135-0.13-0.182-0.325-0.12-0.501l1.19-3.407h-6.083l1.703,4.586
		c0.031,0.08,0.036,0.165,0.021,0.246c0,0.092-0.018,0.186-0.074,0.268l-1.393,2.028h8.132L18.439,9.419z"/>
</g>
<path fill="#808080" d="M23.328,12.77l-4.013-3.827l1.31-3.75c0.051-0.146,0.028-0.307-0.062-0.433
	c-0.089-0.125-0.234-0.199-0.388-0.199H13.07l-0.766-2.065c-0.07-0.187-0.247-0.311-0.447-0.311H2.609H2.608L2.437,1.561
	C2.33,1.184,1.886,1.115,1.529,1.229C1.173,1.344,1.041,1.813,1.147,2.19l5.773,20.901H7.77L1.9,2.037
	C1.876,1.949,1.927,1.856,2.016,1.833c0.086-0.031,0.18,0.026,0.205,0.115l5.895,21.145h0.212L4.946,10.731
	c0.013,0,0.025,0.007,0.037,0.007h6.579l0.763,2.513c0.008,0.03,0.026,0.056,0.04,0.083c0.008,0.014,0.012,0.029,0.022,0.045
	c0.03,0.047,0.071,0.086,0.118,0.122c0.003,0,0.004,0.005,0.006,0.005c0.021,0.015,0.045,0.022,0.067,0.032
	c0.02,0.01,0.037,0.02,0.056,0.027c0.049,0.015,0.098,0.025,0.146,0.025H23c0.195,0,0.371-0.12,0.443-0.3
	C23.513,13.109,23.469,12.903,23.328,12.77z M4.983,9.788c-0.102,0-0.191,0.04-0.269,0.095L2.869,3.136h8.658l2.471,6.652H4.983z
	 M12.555,10.738h1.28l-0.888,1.293L12.555,10.738z M13.682,12.639l1.393-2.028c0.056-0.083,0.073-0.176,0.073-0.268
	c0.016-0.081,0.011-0.166-0.02-0.246l-1.705-4.586h6.085l-1.19,3.407c-0.063,0.177-0.015,0.372,0.12,0.501l3.376,3.22H13.682z"/>
</svg>
