<?xml version="1.0" encoding="utf-8"?>
<!-- Generator: Adobe Illustrator 16.0.0, SVG Export Plug-In . SVG Version: 6.00 Build 0)  -->
<!DOCTYPE svg PUBLIC "-//W3C//DTD SVG 1.1//EN" "http://www.w3.org/Graphics/SVG/1.1/DTD/svg11.dtd">
<svg version="1.1" id="Слой_1" xmlns="http://www.w3.org/2000/svg" xmlns:xlink="http://www.w3.org/1999/xlink" x="0px" y="0px"
	 width="24px" height="24px" viewBox="0 0 24 24" enable-background="new 0 0 24 24" xml:space="preserve">
<path d="M12.851,15.608c0.384,0,1.052-0.452,1.052-1.085c0,0.001,0.02-6.262,0.02-9.5c0-1.711-0.606-3.057-2.217-3.057
	S9.327,3.391,9.327,4.946L9.325,18.723c0,2.246,1.271,3.309,3.418,3.309s3.448-1.078,3.448-3.286l-0.022-11.66
	c-0.001-0.47,0.381-0.87,0.85-0.852c0.469,0,0.849,0.379,0.85,0.849l0.022,11.664c0,3.457-2.494,4.984-5.153,4.984
	s-5.112-1.652-5.112-5.011L7.627,4.943c0-2.85,1.723-4.677,4.095-4.677s3.899,1.671,3.899,4.762c0,3.238-0.02,9.498-0.02,9.498
	c0,1.817-1.426,2.781-2.748,2.781c-1.322,0-2.764-0.698-2.764-2.796L10.084,6.67c0.012-0.469,0.403-0.851,0.871-0.829
	c0.469,0.012,0.84,0.401,0.829,0.871l0.006,7.825C11.79,15.25,12.467,15.608,12.851,15.608z"/>
</svg>
