<?xml version="1.0" encoding="utf-8"?>
<!-- Generator: Adobe Illustrator 15.1.0, SVG Export Plug-In . SVG Version: 6.00 Build 0)  -->
<!DOCTYPE svg PUBLIC "-//W3C//DTD SVG 1.1//EN" "http://www.w3.org/Graphics/SVG/1.1/DTD/svg11.dtd">
<svg version="1.1" id="Слой_1" xmlns="http://www.w3.org/2000/svg" xmlns:xlink="http://www.w3.org/1999/xlink" x="0px" y="0px"
	 width="24px" height="24px" viewBox="0 0 24 24" enable-background="new 0 0 24 24" xml:space="preserve">
<path d="M15.197,14.186c0.316-0.315,0.495-1.242-0.028-1.765c0,0-5.155-5.189-7.83-7.864C5.926,3.144,4.313,2.533,2.983,3.863
	C1.653,5.193,2.196,7.005,3.48,8.289l11.377,11.382c1.855,1.855,3.784,1.685,5.557-0.09c1.774-1.774,1.957-3.739,0.135-5.563
	l-9.65-9.612C10.51,4.019,10.495,3.373,10.897,3c0.387-0.387,1.014-0.388,1.403,0l9.651,9.617c2.855,2.854,2.057,6.177-0.139,8.372
	c-2.196,2.196-5.587,2.858-8.361,0.084L2.073,9.691c-2.354-2.354-2.44-5.286-0.481-7.245c1.959-1.959,4.601-1.841,7.154,0.712
	c2.675,2.675,7.828,7.861,7.828,7.861c1.501,1.501,1.12,3.476,0.028,4.567c-1.094,1.092-2.859,1.707-4.593-0.026l-6.48-6.472
	c-0.376-0.397-0.37-1.036,0.035-1.404c0.397-0.377,1.025-0.362,1.404,0.035l6.469,6.458C14.026,14.766,14.88,14.503,15.197,14.186z"
	/>
</svg>
