<?xml version="1.0" encoding="utf-8"?>
<!-- Generator: Adobe Illustrator 15.1.0, SVG Export Plug-In . SVG Version: 6.00 Build 0)  -->
<!DOCTYPE svg PUBLIC "-//W3C//DTD SVG 1.1//EN" "http://www.w3.org/Graphics/SVG/1.1/DTD/svg11.dtd">
<svg version="1.1" id="Слой_1" xmlns="http://www.w3.org/2000/svg" xmlns:xlink="http://www.w3.org/1999/xlink" x="0px" y="0px"
	 width="24px" height="24px" viewBox="0 0 24 24" enable-background="new 0 0 24 24" xml:space="preserve">
<path fill="#FFFFFF" d="M12.389,21.75c-0.242,0-0.484-0.008-0.726-0.021c-2.772-0.16-5.312-1.402-7.153-3.496
	c-1.869-2.127-2.794-4.869-2.604-7.723c0.314-4.82,4.437-8.524,9.186-8.246c1.905,0.111,3.649,0.964,4.917,2.403
	c1.285,1.461,1.923,3.345,1.795,5.305c-0.223,3.362-3.081,5.942-6.405,5.745c-0.762-0.045-1.342-0.699-1.297-1.463
	s0.716-1.35,1.458-1.303c1.795,0.102,3.368-1.312,3.491-3.162c0.08-1.216-0.314-2.384-1.108-3.288
	c-0.775-0.882-1.844-1.404-3.009-1.472c-3.238-0.192-6.058,2.353-6.273,5.664c-0.141,2.113,0.54,4.139,1.919,5.708
	c1.351,1.535,3.213,2.447,5.244,2.564c2.969,0.172,5.852-1.006,7.907-3.229c0.518-0.561,1.391-0.594,1.95-0.072
	c0.558,0.52,0.59,1.396,0.071,1.957C19.301,20.268,15.922,21.75,12.389,21.75z"/>
</svg>
