<?xml version="1.0" encoding="utf-8"?>
<!-- Generator: Adobe Illustrator 16.0.0, SVG Export Plug-In . SVG Version: 6.00 Build 0)  -->
<!DOCTYPE svg PUBLIC "-//W3C//DTD SVG 1.1//EN" "http://www.w3.org/Graphics/SVG/1.1/DTD/svg11.dtd">
<svg version="1.1" id="Слой_1" xmlns="http://www.w3.org/2000/svg" xmlns:xlink="http://www.w3.org/1999/xlink" x="0px" y="0px"
	 width="24px" height="24px" viewBox="0 0 24 24" enable-background="new 0 0 24 24" xml:space="preserve">
<path fill="#292929" d="M16.547,15.252c-0.122-0.039-0.296-0.001-0.388,0.092l-2.453,2.454c-0.093,0.092-0.262,0.12-0.379,0.063
	c-3.049-1.527-5.539-4-7.087-7.034C6.18,10.712,6.208,10.542,6.3,10.45L8.74,8.009c0.092-0.091,0.13-0.264,0.088-0.386
	c-0.44-1.265-0.679-2.625-0.679-4.038c0-0.392,0.021-0.78,0.057-1.161c0.012-0.128-0.081-0.233-0.21-0.233H2.489
	c-0.128,0-0.244,0.105-0.251,0.233c-0.025,0.384-0.042,0.77-0.042,1.161c0,10.083,8.174,18.257,18.255,18.257
	c0.405,0,0.807-0.017,1.204-0.045c0.129-0.011,0.232-0.124,0.232-0.252v-5.507c0-0.132-0.104-0.225-0.232-0.212
	c-0.396,0.037-0.798,0.062-1.204,0.062C19.087,15.889,17.775,15.664,16.547,15.252z"/>
</svg>
