<?xml version="1.0" encoding="utf-8"?>
<!-- Generator: Adobe Illustrator 16.0.0, SVG Export Plug-In . SVG Version: 6.00 Build 0)  -->
<!DOCTYPE svg PUBLIC "-//W3C//DTD SVG 1.1//EN" "http://www.w3.org/Graphics/SVG/1.1/DTD/svg11.dtd">
<svg version="1.1" id="Слой_1" xmlns="http://www.w3.org/2000/svg" xmlns:xlink="http://www.w3.org/1999/xlink" x="0px" y="0px"
	 width="24px" height="24px" viewBox="0 0 24 24" enable-background="new 0 0 24 24" xml:space="preserve">
<path fill="#292929" d="M23.561,21.121l-4.186-4.186c1.314-1.768,2.103-3.949,2.103-6.316C21.478,4.764,16.712,0,10.854,0
	C4.999,0,0.235,4.764,0.235,10.62c0,5.855,4.764,10.619,10.619,10.619c2.409,0,4.626-0.814,6.41-2.172l4.175,4.176
	c0.293,0.293,0.677,0.439,1.061,0.439s0.768-0.146,1.061-0.439C24.146,22.656,24.146,21.707,23.561,21.121z M3.235,10.62
	C3.235,6.418,6.653,3,10.854,3c4.203,0,7.623,3.418,7.623,7.62c0,4.201-3.42,7.619-7.623,7.619
	C6.653,18.238,3.235,14.82,3.235,10.62z"/>
</svg>
