<?xml version="1.0" encoding="utf-8"?>
<!DOCTYPE svg PUBLIC "-//W3C//DTD SVG 1.1//EN" "http://www.w3.org/Graphics/SVG/1.1/DTD/svg11.dtd">
<svg version="1.1" id="Слой_1" xmlns="http://www.w3.org/2000/svg" xmlns:xlink="http://www.w3.org/1999/xlink" x="0px" y="0px"
	 width="65px" height="20px" viewBox="0 0 65 20" enable-background="new 0 0 65 20" xml:space="preserve">
<g>
	<g>
		<path fill="#060084" d="M33.335,4.602h-9.111c-0.914,0-1.657,0.728-1.657,1.624c0,0.895,0.742,1.624,1.657,1.624h2.875v10.524
			c0,0.899,0.74,1.625,1.654,1.625c0.915,0,1.658-0.726,1.658-1.625V7.851h2.926c0.916,0,1.655-0.729,1.655-1.625
			C34.993,5.329,34.252,4.602,33.335,4.602z"/>
		<path fill="#060084" d="M65,12.441c0-0.063-0.012-0.123-0.019-0.188V6.521c0-0.898-0.736-1.627-1.654-1.627
			c-0.914,0-1.657,0.728-1.657,1.627v4.3h-6.595v-4.3c0-0.898-0.739-1.627-1.657-1.627c-0.914,0-1.655,0.728-1.655,1.627v11.855
			c0,0.897,0.739,1.62,1.655,1.62s1.657-0.723,1.657-1.62v-4.31h6.595v4.31c0,0.897,0.741,1.622,1.657,1.622
			s1.654-0.725,1.654-1.622V12.63C64.988,12.568,65,12.509,65,12.441z"/>
		<path fill="#060084" d="M48.752,14.676c-0.733-0.536-1.774-0.385-2.318,0.336c-0.837,1.104-2.109,1.739-3.486,1.739
			c-2.419,0-4.387-1.979-4.387-4.409c0-2.423,1.968-4.402,4.387-4.402c1.377,0,2.649,0.632,3.486,1.737
			c0.544,0.717,1.582,0.859,2.318,0.333c0.732-0.536,0.882-1.554,0.339-2.271c-1.469-1.935-3.708-3.044-6.144-3.044
			c-4.246,0-7.694,3.431-7.694,7.646c0,4.222,3.448,7.654,7.694,7.654c2.436,0,4.677-1.11,6.146-3.048
			C49.639,16.229,49.489,15.212,48.752,14.676z"/>
	</g>
	<path fill="#FFAF00" d="M10.918,19.99c-2.548,0-4.993-0.882-6.97-2.526c-2.295-1.909-3.687-4.605-3.919-7.585
		c-0.393-5.002,3.335-9.422,8.319-9.851c1.988-0.172,3.922,0.438,5.45,1.709c1.578,1.311,2.536,3.159,2.693,5.209
		c0.276,3.483-2.326,6.559-5.8,6.854c-0.803,0.063-1.512-0.516-1.581-1.303c-0.069-0.786,0.524-1.48,1.328-1.548
		c1.886-0.159,3.298-1.852,3.146-3.779c-0.102-1.283-0.695-2.436-1.673-3.25C10.978,3.147,9.805,2.776,8.603,2.88
		C5.206,3.172,2.665,6.214,2.937,9.659c0.172,2.214,1.202,4.216,2.897,5.624c1.624,1.353,3.674,1.991,5.779,1.82
		c3.104-0.27,5.92-1.913,7.723-4.504c0.455-0.654,1.361-0.821,2.028-0.374c0.665,0.444,0.837,1.333,0.385,1.986
		c-2.298,3.307-5.901,5.399-9.881,5.743C11.548,19.978,11.233,19.99,10.918,19.99z"/>
</g>
</svg>
