<?xml version="1.0" encoding="utf-8"?>
<!-- Generator: Adobe Illustrator 16.0.0, SVG Export Plug-In . SVG Version: 6.00 Build 0)  -->
<!DOCTYPE svg PUBLIC "-//W3C//DTD SVG 1.1//EN" "http://www.w3.org/Graphics/SVG/1.1/DTD/svg11.dtd">
<svg version="1.1" id="Слой_1" xmlns="http://www.w3.org/2000/svg" xmlns:xlink="http://www.w3.org/1999/xlink" x="0px" y="0px"
	 width="24px" height="28px" viewBox="0 -2 24 28" enable-background="new 0 -2 24 28" xml:space="preserve">
<path fill="#FFAF00" d="M22.369,8.265c0,6.94-9.585,12.286-9.585,17.701c-0.04-0.021-0.764,0.027-1.065,0
	c0-5.314-9.679-10.314-9.679-17.701c0-5.625,4.551-10.186,10.165-10.186C17.819-1.921,22.369,2.639,22.369,8.265z"/>
<path fill="#3116C7" d="M35.399,14.001c-1.635,0-3.207-0.566-4.474-1.625c-1.476-1.229-2.37-2.964-2.519-4.882
	c-0.254-3.22,2.142-6.064,5.341-6.34c1.277-0.11,2.519,0.282,3.501,1.101c1.012,0.844,1.628,2.031,1.729,3.352
	c0.179,2.244-1.495,4.222-3.727,4.411c-0.515,0.042-0.971-0.331-1.014-0.838c-0.045-0.507,0.337-0.952,0.853-0.996
	c1.213-0.102,2.119-1.192,2.021-2.432c-0.066-0.826-0.446-1.568-1.074-2.091c-0.6-0.498-1.353-0.735-2.124-0.668
	c-2.182,0.187-3.814,2.144-3.641,4.361c0.111,1.424,0.773,2.714,1.861,3.619c1.044,0.871,2.36,1.282,3.712,1.171
	c1.993-0.173,3.801-1.231,4.961-2.897c0.29-0.42,0.874-0.528,1.301-0.239c0.428,0.285,0.538,0.857,0.247,1.276
	c-1.476,2.129-3.791,3.475-6.344,3.698C35.806,13.992,35.602,14.001,35.399,14.001z"/>
<path fill="none" stroke="#3116C7" stroke-width="2.2677" stroke-linecap="round" stroke-miterlimit="10" d="M18.738,9.087
	c-1.401,2.843-4.51,4.601-7.819,4.137c-3.301-0.462-5.604-3.512-5.142-6.816c0.37-2.64,2.809-4.482,5.452-4.113
	c2.113,0.297,3.589,2.247,3.291,4.361c-0.234,1.69-1.796,2.871-3.488,2.635"/>
</svg>
