<?xml version="1.0" encoding="utf-8"?>
<!-- Generator: Adobe Illustrator 16.0.0, SVG Export Plug-In . SVG Version: 6.00 Build 0)  -->
<!DOCTYPE svg PUBLIC "-//W3C//DTD SVG 1.1//EN" "http://www.w3.org/Graphics/SVG/1.1/DTD/svg11.dtd">
<svg version="1.1" id="Слой_1" xmlns="http://www.w3.org/2000/svg" xmlns:xlink="http://www.w3.org/1999/xlink" x="0px" y="0px"
	 width="30px" height="70px" viewBox="-3 -23 30 70" enable-background="new -3 -23 30 70" xml:space="preserve">
<radialGradient id="SVGID_1_" cx="3.7114" cy="53.1406" r="3.7034" gradientTransform="matrix(1.8124 0 0 0.4037 -3.0156 24.0493)" gradientUnits="userSpaceOnUse">
	<stop  offset="0" style="stop-color:#B3B3B3"/>
	<stop  offset="1" style="stop-color:#FFFFFF;stop-opacity:0"/>
</radialGradient>
<ellipse fill="url(#SVGID_1_)" cx="3.712" cy="45.505" rx="6.712" ry="1.495"/>
<path fill="#FFAF00" d="M27,1.18C27-12.174,16.263-23,3.021-23c-0.017,0-0.033,0.003-0.049,0.003V1.314v0.015V37H27V1.314h-0.007
	C26.995,1.27,27,1.226,27,1.18z"/>
<path fill="none" stroke="#FFFFFF" stroke-width="2.2677" stroke-linecap="round" stroke-miterlimit="10" d="M22.96-3.855
	c-1.674,3.398-5.391,5.499-9.347,4.944C9.667,0.538,6.915-3.108,7.468-7.059c0.441-3.155,3.357-5.357,6.516-4.916
	c2.527,0.354,4.29,2.686,3.935,5.213c-0.28,2.021-2.146,3.432-4.169,3.149"/>
<g>
	<path fill="#3116C7" d="M11.008,25.041c0-0.25-0.097-0.485-0.275-0.664c-0.182-0.183-0.427-0.283-0.688-0.283H5.918
		c-0.531,0-0.963,0.425-0.963,0.947c0,0.523,0.432,0.949,0.963,0.949h1.089v4.555c0,0.523,0.431,0.949,0.961,0.949
		c0.531,0,0.963-0.426,0.963-0.949V25.99h1.113C10.576,25.99,11.008,25.564,11.008,25.041z"/>
	<path fill="#3116C7" d="M24.592,27.771v-2.598c0-0.523-0.431-0.949-0.96-0.949c-0.532,0-0.965,0.426-0.965,0.949v1.736h-2.562
		v-1.736c0-0.523-0.433-0.949-0.964-0.949c-0.53,0-0.962,0.426-0.962,0.949v5.371c0,0.522,0.432,0.947,0.962,0.947
		c0.531,0,0.964-0.425,0.964-0.947v-1.74h2.562v1.74c0,0.522,0.433,0.947,0.965,0.947c0.529,0,0.96-0.425,0.96-0.947v-2.589
		c0.005-0.033,0.009-0.064,0.009-0.099S24.597,27.792,24.592,27.771z"/>
	<path fill="#3116C7" d="M15.811,28.893c-0.341,0.448-0.854,0.705-1.41,0.705c-0.979,0-1.776-0.802-1.776-1.787
		c0-0.982,0.797-1.781,1.776-1.781c0.557,0,1.07,0.257,1.41,0.705c0.303,0.401,0.922,0.495,1.343,0.193
		c0.208-0.151,0.343-0.374,0.38-0.627c0.036-0.251-0.027-0.501-0.182-0.703c-0.705-0.928-1.781-1.461-2.952-1.461
		c-2.039,0-3.698,1.648-3.698,3.674c0,2.03,1.659,3.682,3.698,3.682c1.173,0,2.249-0.534,2.952-1.465
		c0.154-0.203,0.22-0.453,0.183-0.703c-0.036-0.253-0.172-0.477-0.381-0.629C16.744,28.396,16.114,28.49,15.811,28.893z"/>
</g>
<path fill="#B3B3B3" d="M2.961-23v67.823c0,0.322,0.327,0.584,0.729,0.584c0.403,0,0.729-0.262,0.729-0.584V-23H2.961z"/>
</svg>
