<?xml version="1.0" encoding="utf-8"?>
<!-- Generator: Adobe Illustrator 16.0.0, SVG Export Plug-In . SVG Version: 6.00 Build 0)  -->
<!DOCTYPE svg PUBLIC "-//W3C//DTD SVG 1.1//EN" "http://www.w3.org/Graphics/SVG/1.1/DTD/svg11.dtd">
<svg version="1.1" id="Слой_1" xmlns="http://www.w3.org/2000/svg" xmlns:xlink="http://www.w3.org/1999/xlink" x="0px" y="0px"
	 width="30px" height="70px" viewBox="0 0 30 70" enable-background="new 0 0 30 70" xml:space="preserve">
<radialGradient id="SVGID_1_" cx="128.5176" cy="-981.5059" r="3.6992" gradientTransform="matrix(1.8124 0 0 -0.4037 -226.2122 -327.7322)" gradientUnits="userSpaceOnUse">
	<stop  offset="0" style="stop-color:#B3B3B3"/>
	<stop  offset="1" style="stop-color:#FFFFFF;stop-opacity:0"/>
</radialGradient>
<ellipse fill="url(#SVGID_1_)" cx="6.712" cy="68.505" rx="6.712" ry="1.495"/>
<path fill="#FFAF00" d="M30,24.18C30,10.826,19.264,0,6.021,0C6.004,0,5.988,0.002,5.972,0.002v24.311v0.015V60H30V24.313h-0.007
	C29.995,24.27,30,24.226,30,24.18z"/>
<path fill="none" stroke="#FFFFFF" stroke-width="2.2677" stroke-linecap="round" stroke-miterlimit="10" d="M25.745,20.373
	c-2.603,2.751-6.775,3.66-10.387,1.96c-3.607-1.692-5.159-5.988-3.464-9.6c1.354-2.884,4.788-4.125,7.676-2.771
	c2.31,1.085,3.305,3.833,2.219,6.143c-0.865,1.848-3.064,2.645-4.914,1.777"/>
<g>
	<path fill="#3116C7" d="M14.598,48.041c0-0.25-0.097-0.485-0.275-0.664c-0.182-0.184-0.427-0.283-0.688-0.283H9.508
		c-0.531,0-0.963,0.425-0.963,0.947s0.432,0.949,0.963,0.949h1.089v4.555c0,0.522,0.431,0.949,0.961,0.949
		c0.531,0,0.963-0.427,0.963-0.949V48.99h1.113C14.166,48.99,14.598,48.563,14.598,48.041z"/>
	<path fill="#3116C7" d="M28.182,50.771v-2.599c0-0.522-0.431-0.948-0.96-0.948c-0.532,0-0.965,0.426-0.965,0.948v1.736h-2.562
		v-1.736c0-0.522-0.434-0.948-0.965-0.948c-0.529,0-0.961,0.426-0.961,0.948v5.371c0,0.522,0.432,0.947,0.961,0.947
		c0.531,0,0.965-0.425,0.965-0.947v-1.739h2.562v1.739c0,0.522,0.433,0.947,0.965,0.947c0.529,0,0.96-0.425,0.96-0.947v-2.588
		c0.006-0.033,0.01-0.064,0.01-0.1S28.188,50.791,28.182,50.771z"/>
	<path fill="#3116C7" d="M19.4,51.893c-0.34,0.447-0.854,0.705-1.41,0.705c-0.979,0-1.775-0.803-1.775-1.787
		c0-0.982,0.797-1.781,1.775-1.781c0.558,0,1.07,0.258,1.41,0.705c0.303,0.4,0.922,0.495,1.344,0.193
		c0.207-0.151,0.343-0.374,0.38-0.627c0.036-0.252-0.027-0.502-0.183-0.703c-0.705-0.928-1.781-1.461-2.951-1.461
		c-2.039,0-3.698,1.648-3.698,3.674c0,2.029,1.659,3.682,3.698,3.682c1.172,0,2.248-0.533,2.951-1.465
		c0.154-0.203,0.221-0.453,0.184-0.703c-0.036-0.253-0.172-0.477-0.381-0.629C20.334,51.396,19.703,51.49,19.4,51.893z"/>
</g>
<path fill="#B3B3B3" d="M5.961,0v67.823c0,0.322,0.327,0.584,0.729,0.584c0.403,0,0.729-0.262,0.729-0.584V0H5.961z"/>
</svg>
